<svg id="Group_7" data-name="Group 7" xmlns="http://www.w3.org/2000/svg" width="27.58" height="27.575" viewBox="0 0 27.58 27.575">
  <path id="Path_30" data-name="Path 30" d="M30.576,53.333a6.885,6.885,0,0,1-13.58,0H10v10.34a2.3,2.3,0,0,0,2.3,2.3H35.275a2.3,2.3,0,0,0,2.3-2.3V53.333Z" transform="translate(-10 -38.398)" fill="#fff"/>
  <path id="Path_31" data-name="Path 31" d="M45.858,41.262a4.6,4.6,0,1,1-4.594-4.6A4.6,4.6,0,0,1,45.858,41.262Z" transform="translate(-27.476 -27.476)" fill="#fff"/>
  <path id="Path_32" data-name="Path 32" d="M35.275,10H12.3A2.3,2.3,0,0,0,10,12.3V22.64h7a6.885,6.885,0,0,1,13.58,0h7V12.3A2.3,2.3,0,0,0,35.275,10Zm-1.149,5.744a1.153,1.153,0,0,1-1.149,1.149H31.828a1.153,1.153,0,0,1-1.149-1.149V14.6a1.153,1.153,0,0,1,1.149-1.149h1.149A1.153,1.153,0,0,1,34.126,14.6Z" transform="translate(-10 -10)" fill="#fff"/>
</svg>
