<svg xmlns="http://www.w3.org/2000/svg" width="85" height="100" viewBox="0 0 85 100">
  <g id="Group_73" data-name="Group 73" transform="translate(-4783 -3116)">
    <rect id="Rectangle_41" data-name="Rectangle 41" width="85" height="100" transform="translate(4783 3116)" fill="none"/>
    <rect id="Rectangle_41-2" data-name="Rectangle 41" width="85" height="3" transform="translate(4783 3168)" fill="#fff"/>
    <path id="Path_1" data-name="Path 1" d="M30.975-79.8V-99.225H20.65a42.655,42.655,0,0,1,.438-6.037,17.907,17.907,0,0,1,1.663-5.513,11.208,11.208,0,0,1,3.15-3.937,7.78,7.78,0,0,1,4.9-1.487v-8.75a16.984,16.984,0,0,0-8.575,2.1,17.908,17.908,0,0,0-6.038,5.6,25.087,25.087,0,0,0-3.5,8.138,41.4,41.4,0,0,0-1.137,9.887V-79.8ZM63-79.8V-99.225H52.675a42.654,42.654,0,0,1,.438-6.037,17.907,17.907,0,0,1,1.662-5.513,11.208,11.208,0,0,1,3.15-3.937,7.78,7.78,0,0,1,4.9-1.487v-8.75a16.984,16.984,0,0,0-8.575,2.1,17.908,17.908,0,0,0-6.037,5.6,25.087,25.087,0,0,0-3.5,8.138,41.4,41.4,0,0,0-1.137,9.887V-79.8Z" transform="translate(4788 3268)" fill="#02a0ac"/>
  </g>
</svg>
