<svg xmlns="http://www.w3.org/2000/svg" width="28" height="28" viewBox="0 0 28 28">
  <g id="Group_9" data-name="Group 9" transform="translate(389 -3665)">
    <path id="Path_34" data-name="Path 34" d="M37.189,24.861a3.08,3.08,0,0,0-2.473-2.52,88.609,88.609,0,0,0-21.857,0,3.079,3.079,0,0,0-2.474,2.52,56.33,56.33,0,0,0,0,13.139,3.078,3.078,0,0,0,2.474,2.52,88.61,88.61,0,0,0,21.857,0A3.078,3.078,0,0,0,37.189,38a56.33,56.33,0,0,0,0-13.139Zm-15.7,11.166V26.835l6.893,4.6Z" transform="translate(-399.001 3647.472)" fill="#fff"/>
    <rect id="Rectangle_18" data-name="Rectangle 18" width="28" height="28" transform="translate(-389 3665)" fill="none"/>
  </g>
</svg>
