<svg id="Group_5" data-name="Group 5" xmlns="http://www.w3.org/2000/svg" width="236.982" height="64.025" viewBox="0 0 236.982 64.025">
  <g id="Group_3" data-name="Group 3" transform="translate(61.157 13.229)">
    <path id="Path_5" data-name="Path 5" d="M319.42,22.867a5.609,5.609,0,0,1-1.862.38,11.289,11.289,0,0,1-2.681-.612c-1.32-.4-2.231-.656-2.74-.748a9.718,9.718,0,0,0-1.669-.136,6.473,6.473,0,0,0-4.255,1.516v3.527a6.25,6.25,0,0,1,3.924-1.527A11.81,11.81,0,0,1,313.62,26a19.345,19.345,0,0,0,2.162.624,7.316,7.316,0,0,0,1.4.133,6.748,6.748,0,0,0,2.451-.461,7.119,7.119,0,0,0,1.847-.988V21.664a7.065,7.065,0,0,1-2.063,1.2" transform="translate(-148.832 -19.432)" fill="#fff"/>
    <path id="Path_6" data-name="Path 6" d="M106.358,52.148V38.626H91.918V52.148H85.693V21.533h6.226V33.37h14.44V21.533h6.226V52.148Z" transform="translate(-85.693 -19.394)" fill="#fff"/>
    <path id="Path_7" data-name="Path 7" d="M139.439,35.517c-3.98,0-6.582,3.062-6.582,7.5,0,4.492,2.653,7.5,6.582,7.5s6.531-3.01,6.531-7.5c0-4.438-2.6-7.5-6.531-7.5m0,19.339c-7.144,0-12.4-5.154-12.4-11.839,0-6.631,5.255-11.837,12.4-11.837,7.093,0,12.349,5.206,12.349,11.837,0,6.685-5.256,11.839-12.349,11.839" transform="translate(-97.531 -22.156)" fill="#fff"/>
    <path id="Path_8" data-name="Path 8" d="M219.485,55.341v-12.2c0-4.285-1.479-5.715-4.184-5.715-2.8,0-5.867,2.551-5.867,5.613v12.3h-5.919V33.3h5.408l.254,4.082a9.392,9.392,0,0,1,8.164-4.695c5.869,0,8.062,4.082,8.062,9.542V55.341Z" transform="translate(-119.428 -22.588)" fill="#fff"/>
    <path id="Path_9" data-name="Path 9" d="M277.325,52.148V33.37c0-.714.153-2.7.2-2.908L276.4,33.37l-8.215,18.778h-3.827L256.15,33.37c-.307-.714-.969-2.6-1.072-2.908,0,.153.153,2.195.153,2.908V52.148H249.77V21.533h6.63l10.1,22.4,10.05-22.4h6.431V52.148Z" transform="translate(-132.672 -19.394)" fill="#fff"/>
    <path id="Path_10" data-name="Path 10" d="M304.258,63.118h5.7l12.663-29.576h-5.613L310.989,48.29l-6.071-14.747H299.1l8.98,20.819Z" transform="translate(-146.796 -22.833)" fill="#fff"/>
    <path id="Path_11" data-name="Path 11" d="M176.9,50.6c-.144.009-.288.021-.436.021-3.47,0-6.277-2.7-6.277-7.247s2.813-7.244,6.28-7.244c.148,0,.292.011.436.021,3.265.218,5.841,2.875,5.841,7.223s-2.576,7.007-5.841,7.225m12,4.409V32.353h-5.359l-.118,2.061a10.2,10.2,0,0,0-1.783-1.227,7.8,7.8,0,0,0-1.353-.634l-.143-.045a12.064,12.064,0,0,0-2.539-.64c-.143-.022-.28-.036-.42-.053-.089-.009-.177-.025-.266-.033a12.734,12.734,0,0,0-2.613-.006,9.767,9.767,0,0,0-3.411.894,7.251,7.251,0,0,0-.712.369l-.012.011c-3.291,1.9-5.407,5.72-5.407,10.324,0,6.483,4.519,11.4,10.728,11.624.144.006.287.011.433.011a11.618,11.618,0,0,0,7.5-2.672l.118,2.672Z" transform="translate(-108.335 -22.309)" fill="#fff"/>
    <path id="Path_12" data-name="Path 12" d="M173.15,21.774l2.092-3.238,7.269,5.976-.846,1.4Z" transform="translate(-110.734 -18.536)" fill="#fff"/>
  </g>
  <g id="Group_4" data-name="Group 4" transform="translate(87.93 50.523)">
    <path id="Path_13" data-name="Path 13" d="M126.726,72.895h-3.519V71.787h8.36V72.9h-3.519v8.8h-1.322Z" transform="translate(-123.207 -71.077)" fill="#fff"/>
    <path id="Path_14" data-name="Path 14" d="M134.92,72.693l1.966-1.9,1.968,1.9-.447.43-1.521-1.257-1.519,1.257Zm4.445,5.156a2.478,2.478,0,1,0-2.461,2.758,2.511,2.511,0,0,0,2.461-2.758m-6.18,0a3.542,3.542,0,0,1,3.4-3.767,3.334,3.334,0,0,1,2.81,1.487l.049-1.29h1.091v7.137h-1.091l-.049-1.289a3.334,3.334,0,0,1-2.81,1.487,3.542,3.542,0,0,1-3.4-3.766" transform="translate(-126.064 -70.792)" fill="#fff"/>
    <path id="Path_15" data-name="Path 15" d="M145.9,75.6h1.091l.083,1.371A3.333,3.333,0,0,1,149.85,75.4c1.9,0,2.577,1.321,2.577,3.09v4.246h-1.256v-4.13c0-1.6-.628-2.132-1.669-2.132a2.383,2.383,0,0,0-2.347,2.048v4.214H145.9Z" transform="translate(-129.703 -72.112)" fill="#fff"/>
    <path id="Path_16" data-name="Path 16" d="M163.68,72.895h-3.519V71.787h8.36V72.9H165v8.8h-1.32Z" transform="translate(-133.788 -71.077)" fill="#fff"/>
    <path id="Path_17" data-name="Path 17" d="M171.875,72.693l1.966-1.9,1.966,1.9-.445.43-1.521-1.257-1.519,1.257Zm4.445,5.156a2.478,2.478,0,1,0-2.461,2.758,2.511,2.511,0,0,0,2.461-2.758m-6.18,0a3.542,3.542,0,0,1,3.4-3.767,3.334,3.334,0,0,1,2.81,1.487l.049-1.29h1.092v7.137H176.4l-.049-1.289a3.334,3.334,0,0,1-2.81,1.487,3.542,3.542,0,0,1-3.4-3.766" transform="translate(-136.645 -70.792)" fill="#fff"/>
    <path id="Path_18" data-name="Path 18" d="M182.852,75.6h1.09l.084,1.371a3.166,3.166,0,0,1,2.627-1.569,2.087,2.087,0,0,1,2.264,1.635,3.394,3.394,0,0,1,2.726-1.635c1.9,0,2.413,1.321,2.413,3.09v4.246H192.8V78.589c0-1.569-.48-2.115-1.519-2.115a2.237,2.237,0,0,0-2.2,2.048v4.214h-1.256V78.589c0-1.569-.479-2.115-1.521-2.115a2.238,2.238,0,0,0-2.2,2.048v4.214h-1.255Z" transform="translate(-140.284 -72.112)" fill="#fff"/>
    <path id="Path_19" data-name="Path 19" d="M204.293,76.659a5.04,5.04,0,0,1,5.271-5.172A6.045,6.045,0,0,1,213,72.529V73.9a4.944,4.944,0,0,0-3.437-1.306,4.068,4.068,0,0,0,0,8.129A4.944,4.944,0,0,0,213,79.417V80.79a6.055,6.055,0,0,1-3.437,1.041,5.04,5.04,0,0,1-5.271-5.172" transform="translate(-146.424 -70.991)" fill="#fff"/>
    <path id="Path_20" data-name="Path 20" d="M218.371,71.788h1.255v4a3.458,3.458,0,0,1,2.693-1.422c1.9,0,2.579,1.323,2.579,3.092V81.7h-1.255V77.571c0-1.6-.629-2.132-1.669-2.132a2.385,2.385,0,0,0-2.347,2.05V81.7h-1.255Z" transform="translate(-150.454 -71.077)" fill="#fff"/>
    <path id="Path_21" data-name="Path 21" d="M235.5,79.168a2.478,2.478,0,1,0-2.461,2.758,2.511,2.511,0,0,0,2.461-2.758m-6.18,0a3.542,3.542,0,0,1,3.4-3.767,3.337,3.337,0,0,1,2.81,1.487l.048-1.29h1.092v7.335h-1.092l-.048-1.487a3.336,3.336,0,0,1-2.81,1.487,3.542,3.542,0,0,1-3.4-3.766" transform="translate(-153.59 -72.112)" fill="#fff"/>
    <path id="Path_22" data-name="Path 22" d="M242.034,75.6h1.091l.083,1.371a3.165,3.165,0,0,1,2.626-1.569,2.086,2.086,0,0,1,2.264,1.635,3.4,3.4,0,0,1,2.726-1.635c1.9,0,2.414,1.321,2.414,3.09v4.446H251.98V78.589c0-1.569-.479-2.115-1.519-2.115a2.237,2.237,0,0,0-2.2,2.048v4.413h-1.255V78.589c0-1.569-.479-2.115-1.521-2.115a2.238,2.238,0,0,0-2.2,2.048v4.413h-1.256Z" transform="translate(-157.23 -72.112)" fill="#fff"/>
    <path id="Path_23" data-name="Path 23" d="M263.429,80.625l.3-1.224a4.042,4.042,0,0,0,3.007,1.355,1.846,1.846,0,0,0,2.083-1.734c0-1.008-.5-1.569-2.347-2.066-1.866-.5-2.758-1.5-2.758-2.892s1.155-2.577,3.188-2.577a4.47,4.47,0,0,1,2.694.909l-.3,1.041a4.424,4.424,0,0,0-2.4-.876c-1.238,0-1.951.579-1.951,1.5,0,.712.448,1.305,2,1.72,2.132.561,3.107,1.486,3.107,3.122,0,1.934-1.621,2.924-3.323,2.924a4.642,4.642,0,0,1-3.3-1.205" transform="translate(-163.355 -70.991)" fill="#fff"/>
    <path id="Path_24" data-name="Path 24" d="M276.637,72.945l2.231-1.851.611.926-2.626,1.272Zm3.668,4.99a2.632,2.632,0,1,0-.7,1.986,2.642,2.642,0,0,0,.7-1.986m-6.527,0a3.891,3.891,0,1,1,3.9,3.832,3.789,3.789,0,0,1-3.9-3.832" transform="translate(-166.319 -70.878)" fill="#fff"/>
    <path id="Path_25" data-name="Path 25" d="M285.841,79.168A3.587,3.587,0,0,1,289.56,75.4a4.02,4.02,0,0,1,2.495.727v1.14a3.437,3.437,0,0,0-2.379-.842,2.748,2.748,0,0,0,0,5.485,3.427,3.427,0,0,0,2.379-.843v1.14a4.007,4.007,0,0,1-2.5.727,3.586,3.586,0,0,1-3.719-3.766" transform="translate(-169.772 -72.112)" fill="#fff"/>
    <path id="Path_26" data-name="Path 26" d="M233.41,73.082a2.249,2.249,0,0,1-1.606-.57,2.221,2.221,0,0,1-.672-1.331h.737a1.518,1.518,0,0,0,.435.789,1.712,1.712,0,0,0,2.212,0,1.508,1.508,0,0,0,.435-.789h.737a2.224,2.224,0,0,1-.672,1.331,2.253,2.253,0,0,1-1.606.57" transform="translate(-154.108 -70.903)" fill="#fff"/>
    <path id="Path_27" data-name="Path 27" d="M138.153,88.593a.618.618,0,1,1-.181-.438.62.62,0,0,1,.181.438" transform="translate(-127.131 -75.712)" fill="#fff"/>
  </g>
  <path id="Path_28" data-name="Path 28" d="M30.453,14.4h0a.129.129,0,0,0,.128-.128V1.529A1.529,1.529,0,0,0,29.052,0H16.819A1.529,1.529,0,0,0,15.29,1.529v10.7a3.058,3.058,0,0,1-3.058,3.058H1.529A1.529,1.529,0,0,0,0,16.82V29.052a1.529,1.529,0,0,0,1.529,1.529H14.271a.129.129,0,0,0,.128-.128h0A16.052,16.052,0,0,1,30.454,14.4Z" fill="#fff"/>
  <path id="Path_29" data-name="Path 29" d="M50.477,21.425H36.716A15.288,15.288,0,0,0,21.427,36.717h0V50.477a1.529,1.529,0,0,0,1.529,1.529H35.187a1.529,1.529,0,0,0,1.529-1.529v-10.7a3.058,3.058,0,0,1,3.058-3.058h10.7A1.529,1.529,0,0,0,52,35.19V22.954a1.529,1.529,0,0,0-1.526-1.529Z" transform="translate(-6.134 -6.134)" fill="#fff"/>
</svg>
