<svg xmlns="http://www.w3.org/2000/svg" width="224" height="224" viewBox="0 0 224 224">
  <g id="Group_79" data-name="Group 79" transform="translate(-4962 -3441)">
    <g id="thumb-female" transform="translate(4583 2305)">
      <rect id="Rectangle_42" data-name="Rectangle 42" width="224" height="224" transform="translate(379 1136)" fill="rgba(140,203,211,0.25)"/>
      <g id="Group_76" data-name="Group 76" transform="translate(410.063 1175.792)">
        <path id="Path_224" data-name="Path 224" d="M40.687,81.039a3.251,3.251,0,1,0,.183-6.5,3.19,3.19,0,0,0-.8.078h-.22a3.25,3.25,0,0,0,.837,6.42Z" transform="translate(18.249 68.871)" fill="#8ccbd3"/>
        <path id="Path_225" data-name="Path 225" d="M142.673,170.067l-7.357-50.6a11.963,11.963,0,0,0-8.752-9.829l-18.183-4.845a32.12,32.12,0,0,1,.4,8.752l-1.735,14.833h1.236a15.467,15.467,0,0,1,11.544,5.243,20.053,20.053,0,0,1,4.785,15.571l-1.416,13.8a7.219,7.219,0,1,1-3.987-.419l1.535-13.8a16.382,16.382,0,0,0-3.868-12.421,11.522,11.522,0,0,0-8.593-3.987H102.8a11.522,11.522,0,0,0-8.593,3.987,16.386,16.386,0,0,0-3.788,12.5l1.435,13.836a7.278,7.278,0,1,1-3.987.219L86.45,149.252a20.053,20.053,0,0,1,4.785-15.571,15.473,15.473,0,0,1,11.564-5.3h.219l1.774-15.252a28.247,28.247,0,0,0-.439-8.493,1.788,1.788,0,0,1,0-.917l-5.263-1.4a4.109,4.109,0,0,1-2.69-2.411,39.283,39.283,0,0,1-2.532-12.6c12.56,4.984,32.258,1.994,32.258,1.994C113.8,83.958,124.132,52.018,113.8,27.655,100.346-3.766,81.685,6.88,80.868,7.339,80.13,6.88,61.469-3.766,48.031,27.6c-10.427,24.363,0,56.3-12.321,61.646,0,0,19.5,3.03,32.079-1.854a39.3,39.3,0,0,1-2.532,12.541,4.126,4.126,0,0,1-2.692,2.392L57.422,103.7a1.865,1.865,0,0,1,0,.937,26.962,26.962,0,0,0-.479,8.513l2.791,26.35a7.176,7.176,0,1,1-3.987.678l-2.791-26.636a32.11,32.11,0,0,1,.3-8.752l-18.183,4.825a11.963,11.963,0,0,0-8.752,9.849l-7.257,50.6A11.962,11.962,0,0,0,29.186,183.62a12.11,12.11,0,0,0,1.719.124H130.83a11.962,11.962,0,0,0,11.97-11.959,12.086,12.086,0,0,0-.127-1.718Z" fill="#8ccbd3"/>
        <circle id="Ellipse_5" data-name="Ellipse 5" cx="3.25" cy="3.25" r="3.25" transform="translate(117.253 166.418)" fill="#8ccbd3"/>
        <path id="Path_226" data-name="Path 226" d="M53.08,89.33a3.24,3.24,0,1,0,0-.02Z" transform="translate(33.928 80.338)" fill="#8ccbd3"/>
      </g>
    </g>
    <text id="Placeholder_Image" data-name="Placeholder Image" transform="translate(5074 3559)" fill="#fff" font-size="18" font-family="HelveticaNeue, Helvetica Neue" letter-spacing="0.02em"><tspan x="-77.886" y="0">Placeholder Image</tspan></text>
  </g>
</svg>
