<svg xmlns="http://www.w3.org/2000/svg" width="224" height="224" viewBox="0 0 224 224">
  <g id="Group_78" data-name="Group 78" transform="translate(-5196 -3441)">
    <g id="thumb-male" transform="translate(5094 2305)">
      <rect id="Rectangle_43" data-name="Rectangle 43" width="224" height="224" transform="translate(102 1136)" fill="rgba(140,203,211,0.25)"/>
      <g id="Group_77" data-name="Group 77" transform="translate(35.543 1161.738)">
        <circle id="Ellipse_6" data-name="Ellipse 6" cx="3.248" cy="3.248" r="3.248" transform="translate(214.73 180.541)" fill="#8ccbd3"/>
        <path id="Path_227" data-name="Path 227" d="M150.6,103.452a3.236,3.236,0,1,0,0-.02Z" transform="translate(33.898 80.336)" fill="#8ccbd3"/>
        <path id="Path_228" data-name="Path 228" d="M138.206,95.159a3.248,3.248,0,1,0,.183-6.493,3.281,3.281,0,0,0-.8.076h-.219a3.248,3.248,0,0,0,.837,6.417Z" transform="translate(18.233 68.88)" fill="#8ccbd3"/>
        <path id="Path_229" data-name="Path 229" d="M240.138,184.207l-7.354-50.578a11.96,11.96,0,0,0-8.749-9.825l-18.175-4.843a32.113,32.113,0,0,1,.4,8.749l-1.734,14.747h1.236A15.475,15.475,0,0,1,217.3,147.7a20.047,20.047,0,0,1,4.783,15.564l-1.415,13.79a7.214,7.214,0,1,1-3.986-.418l1.535-13.711a16.384,16.384,0,0,0-3.866-12.5,11.524,11.524,0,0,0-8.589-3.986h-5.48a11.524,11.524,0,0,0-8.589,3.986,16.381,16.381,0,0,0-3.786,12.5l1.435,13.83a7.274,7.274,0,1,1-3.986.219l-1.415-13.651a20.047,20.047,0,0,1,4.783-15.564,15.466,15.466,0,0,1,11.558-5.3h.219l1.774-15.165a28.238,28.238,0,0,0-.438-8.489,1.786,1.786,0,0,1,0-.917l-5.281-1.335a4.1,4.1,0,0,1-2.69-2.411A45.684,45.684,0,0,1,191.254,96.2,30.907,30.907,0,0,0,208.93,71.91l1.136-.379a7.708,7.708,0,0,0,5.3-7.334V58.22a4.883,4.883,0,0,0-4.881-4.882H209.15l2.112-15.664c-13.432-26.744-32.085-16.56-32.9-16.122-.777-.438-19.43-10.622-32.862,16.142L147.491,52.8v.558h-1.176a4.883,4.883,0,0,0-4.882,4.881v5.98a7.708,7.708,0,0,0,5.3,7.334l1.056.359a30.846,30.846,0,0,0,17.577,24.253v5.281a39.865,39.865,0,0,1-2.551,12.674,4.119,4.119,0,0,1-2.75,2.431l-5.142,1.375a1.864,1.864,0,0,1,0,.937,27.044,27.044,0,0,0-.478,8.45l2.79,26.345a7.173,7.173,0,1,1-3.986.678l-2.79-26.624a32.1,32.1,0,0,1,.3-8.749l-18.175,4.823a11.96,11.96,0,0,0-8.749,9.845l-7.254,50.578a11.959,11.959,0,0,0,10.12,13.549,11.8,11.8,0,0,0,1.718.122H228.3a11.955,11.955,0,0,0,11.961-11.953,12.1,12.1,0,0,0-.123-1.719Z" fill="#8ccbd3"/>
      </g>
    </g>
    <text id="Placeholder_Image" data-name="Placeholder Image" transform="translate(5308 3559)" fill="#fff" font-size="18" font-family="HelveticaNeue, Helvetica Neue" letter-spacing="0.02em"><tspan x="-77.886" y="0">Placeholder Image</tspan></text>
  </g>
</svg>
