<svg xmlns="http://www.w3.org/2000/svg" xmlns:xlink="http://www.w3.org/1999/xlink" width="120" height="120" viewBox="0 0 120 120">
  <defs>
    <clipPath id="clip-words">
      <rect width="120" height="120"/>
    </clipPath>
  </defs>
  <g id="words" clip-path="url(#clip-words)">
    <path id="Path_221" data-name="Path 221" d="M-15.309,106.468q0-21.384,15.677-36.732a51.6,51.6,0,0,1,37.52-15.349,50.639,50.639,0,0,1,37.126,15.48A50.608,50.608,0,0,1,90.56,107.058a49.8,49.8,0,0,1-15.611,37.06A52.247,52.247,0,0,1,37.1,159.4q-19.613,0-35.224-13.578Q-15.309,130.8-15.309,106.468Zm15.415.2q0,16.792,11.282,27.615Q22.6,145.1,37.3,145.1a36.451,36.451,0,0,0,26.893-11.02,37.3,37.3,0,0,0,10.954-27.156q0-16.2-10.823-27.156a35.73,35.73,0,0,0-26.631-11.02,36.081,36.081,0,0,0-26.7,11.02Q.106,90.66.106,106.665Z" transform="translate(22.309 -46.381)" fill="#02a0ac"/>
  </g>
</svg>
