<svg xmlns="http://www.w3.org/2000/svg" width="29.507" height="29.508" viewBox="0 0 29.507 29.508"><defs><style>.a{fill:#fff;}</style></defs><g transform="translate(-1.76 -1.76)"><rect class="a" width="2.459" height="2.459" transform="translate(18.971 4.219)"/><path class="a" d="M12.376,9.137A1.229,1.229,0,0,0,13.6,7.908V2.989a1.229,1.229,0,0,0-2.458,0V7.908A1.229,1.229,0,0,0,12.376,9.137Z" transform="translate(4.137 0)"/><path class="a" d="M16.642,16.267a1.229,1.229,0,1,0,0,2.458H19.1a1.229,1.229,0,1,0,0-2.458Z" transform="translate(6.018 6.394)"/><path class="a" d="M11.523,11.9h2.459a1.229,1.229,0,0,0,0-2.458H11.523a1.229,1.229,0,0,0,0,2.458Z" transform="translate(3.761 3.386)"/><path class="a" d="M19.1,12.853H16.642a1.229,1.229,0,1,0,0,2.458H19.1a1.229,1.229,0,1,0,0-2.458Z" transform="translate(6.018 4.889)"/><path class="a" d="M17.5,9.137a1.229,1.229,0,0,0,1.229-1.229V2.989a1.229,1.229,0,1,0-2.458,0V7.908A1.229,1.229,0,0,0,17.5,9.137Z" transform="translate(6.394 0)"/><path class="a" d="M16.643,11.9H19.1a1.229,1.229,0,0,0,0-2.458H16.643a1.229,1.229,0,1,0,0,2.458Z" transform="translate(6.018 3.386)"/><path class="a" d="M28.809,3.467H26.35V5.926h2.459v22.13H4.218V5.925H6.677V3.467H4.218A2.458,2.458,0,0,0,1.76,5.926v22.13a2.459,2.459,0,0,0,2.458,2.459h24.59a2.459,2.459,0,0,0,2.459-2.459V5.925A2.458,2.458,0,0,0,28.809,3.467Z" transform="translate(0 0.752)"/><path class="a" d="M6.4,11.9H8.861a1.229,1.229,0,1,0,0-2.458H6.4a1.229,1.229,0,1,0,0,2.458Z" transform="translate(1.504 3.386)"/><path class="a" d="M8.861,12.853H6.4a1.229,1.229,0,1,0,0,2.458H8.861a1.229,1.229,0,1,0,0-2.458Z" transform="translate(1.504 4.889)"/><path class="a" d="M6.4,16.267a1.229,1.229,0,1,0,0,2.458H8.861a1.229,1.229,0,1,0,0-2.458Z" transform="translate(1.504 6.394)"/><path class="a" d="M11.522,16.267a1.229,1.229,0,1,0,0,2.458h2.459a1.229,1.229,0,0,0,0-2.458Z" transform="translate(3.761 6.394)"/><path class="a" d="M13.981,12.853H11.522a1.229,1.229,0,1,0,0,2.458h2.459a1.229,1.229,0,0,0,0-2.458Z" transform="translate(3.761 4.889)"/><path class="a" d="M7.256,9.137A1.229,1.229,0,0,0,8.485,7.908V2.989a1.23,1.23,0,0,0-2.459,0V7.908A1.23,1.23,0,0,0,7.256,9.137Z" transform="translate(1.88 0)"/><path class="a" d="M11.046,3.467H8.587V5.926h2.459Z" transform="translate(3.009 0.752)"/></g></svg>