<svg xmlns="http://www.w3.org/2000/svg" width="22.534" height="32.191" viewBox="0 0 22.534 32.191"><defs><style>.a{fill:#fff;}</style></defs><g transform="translate(-291.903 -0.245)"><path class="a" d="M304.685,46.042a.376.376,0,0,0-.376.378,1.585,1.585,0,1,1-1.585-1.586.378.378,0,0,0,0-.755,2.342,2.342,0,1,0,2.336,2.342A.376.376,0,0,0,304.685,46.042Z" transform="translate(-5.45 -28.155)"/><path class="a" d="M313.31,3.085h-3.256a1.5,1.5,0,0,0-1.476-1.227h-3.685a1.727,1.727,0,0,0-3.447,0h-3.685a1.5,1.5,0,0,0-1.475,1.227H293.03A1.13,1.13,0,0,0,291.9,4.218V31.3a1.13,1.13,0,0,0,1.127,1.133h20.28a1.13,1.13,0,0,0,1.127-1.133V4.218A1.13,1.13,0,0,0,313.31,3.085Zm-.376,27.394H293.405V5.042h2.854v.83H310.08v-.83h2.854Z"/><path class="a" d="M302.725,61.4a2.342,2.342,0,1,0,2.336,2.342A2.339,2.339,0,0,0,302.725,61.4Zm0,3.928a1.586,1.586,0,1,1,1.585-1.586A1.586,1.586,0,0,1,302.725,65.328Z" transform="translate(-5.45 -39.281)"/><path class="a" d="M302.725,30.353a2.339,2.339,0,0,0,2.336-2.342.376.376,0,1,0-.751,0,1.585,1.585,0,1,1-1.585-1.586.378.378,0,0,0,0-.756,2.342,2.342,0,0,0,0,4.683Z" transform="translate(-5.45 -16.331)"/><path class="a" d="M307.12,24.733l-1.823,2.3-.482-.462a.374.374,0,0,0-.531.013.379.379,0,0,0,.013.534l.778.745.3.284.256-.322,2.079-2.618a.38.38,0,0,0-.059-.531A.374.374,0,0,0,307.12,24.733Z" transform="translate(-7.886 -15.638)"/><path class="a" d="M326.432,65.216H318.16a.755.755,0,0,0,0,1.511h8.272a.755.755,0,0,0,0-1.511Z" transform="translate(-16.383 -41.733)"/><path class="a" d="M326.432,48H318.16a.755.755,0,0,0,0,1.511h8.272a.755.755,0,0,0,0-1.511Z" transform="translate(-16.383 -30.675)"/><path class="a" d="M307.12,43.1,305.3,45.4l-.482-.462a.374.374,0,0,0-.531.013.379.379,0,0,0,.013.534l.778.745.3.284.256-.322,2.079-2.618a.38.38,0,0,0-.059-.531A.374.374,0,0,0,307.12,43.1Z" transform="translate(-7.886 -27.436)"/><path class="a" d="M318.16,29.625a.755.755,0,0,0,0,1.511h8.272a.755.755,0,0,0,0-1.511Z" transform="translate(-16.383 -18.872)"/></g></svg>