<svg xmlns="http://www.w3.org/2000/svg" width="75.424" height="172.265" viewBox="0 0 75.424 172.265"><defs><style>.a{fill:#00314e;}.b{fill:#facaae;}.c{fill:#f16457;}.d{opacity:0.1;}.e{opacity:0.06;}.f{fill:#0f3c7a;}.g{fill:#8f705c;}.h{fill:#002b39;}.i{fill:#003141;}.j{fill:#ffc09d;}.k{fill:#0c70c7;}.l{fill:#765c4b;}.m{fill:#fff;}</style></defs><g transform="translate(0 4.747)"><path class="a" d="M783.893,172.455a9.406,9.406,0,0,0-8.837,7.988c-.674,4.273-2.754,6.47-4.923,11.437s1.994,8.394,1.994,8.394c-3.756,11.449,20.658,9.643,24.8,8.248s1.979-17.859.1-25.841S788.617,172.16,783.893,172.455Z" transform="translate(-761.674 -172.432)"/><path class="b" d="M763.353,298.109l-3.706-.046a28.14,28.14,0,0,0-1.8,9.383l2.507,7.071a2.615,2.615,0,0,0,.823-1.447l-.677-5.2a18.145,18.145,0,0,1,.846-3.3c.527-1.271.5.581.8,2.566s1.49,1.437,1.49,1.437l-.009-4.473C764.414,302.2,763.353,298.109,763.353,298.109Z" transform="translate(-757.845 -213.679)"/><path class="c" d="M767.145,220.412c-1.219,7.057.25,17.65-1.339,26.421l-6.527,24.322,5.337,1.057,8.392-24.155s2.935-22.233,2.046-29.892C774.556,213.867,767.841,216.389,767.145,220.412Z" transform="translate(-758.316 -186.712)"/><path class="d" d="M773.512,215.943a5.221,5.221,0,0,1-.13,1.154c-3.962,17.47-2.286,38.395-10.354,54.558l2.82.558,8.392-24.155s2.935-22.233,2.045-29.892A2.346,2.346,0,0,0,773.512,215.943Z" transform="translate(-759.547 -186.713)"/><path class="b" d="M807.7,281.383l-16,1.54-.169,9.256c.758,5.554,3.871,32.986,3.871,32.986l.183,0,6.226,41.983c-.383,1.906-4.674,5.471-7.242,5.653-1.979.14-2.413,2.229-2.483,2.916h15.677a66.5,66.5,0,0,0-.744-8.678c.291-6.991,1.052-27.012.447-31.646-.627-4.8-1.785-11.194-2.114-12.984-.109-5.457-.105-17.382,1.662-25.522C809.381,286.036,807.7,281.383,807.7,281.383Z" transform="translate(-768.908 -208.203)"/><path class="e" d="M807.7,281.383l-16,1.54-.169,9.256c.5,3.662,2.023,16.834,3,25.383a4.267,4.267,0,0,1,3.1.967c7.755,6.219,6.807,18.843,7.671,27.762.64,6.615,1.429,13.368.076,19.954a21.173,21.173,0,0,1-4.683,9.475h7.064a66.5,66.5,0,0,0-.744-8.678c.291-6.991,1.052-27.012.447-31.646-.627-4.8-1.785-11.194-2.114-12.984-.109-5.457-.105-17.382,1.662-25.522C809.381,286.036,807.7,281.383,807.7,281.383Z" transform="translate(-768.908 -208.203)"/><path class="b" d="M785.85,366.815c.276-4.588,1.59-27.209.93-32.27-.68-5.219-1.989-12.316-2.18-13.344-.5-6.151.961-23.394.961-23.394l.589-18.26-13.464-.757s-.168,3.282-.42,10.35,2.608,35.006,2.608,35.006l5.846,43.062c-1.093,1.92-5.109,4.582-7.569,4.747-2.11.14-2.571,2.228-2.646,2.915h16.529a30.719,30.719,0,0,0-1.106-8.051Z" transform="translate(-762.001 -207.352)"/><path class="e" d="M786.7,366.815c.276-4.588,1.59-27.209.93-32.27-.68-5.219-1.989-12.316-2.18-13.344-.5-6.151.961-23.394.961-23.394l.589-18.26-13.464-.757s-.168,3.282-.42,10.35c-.166,4.63,1,18.211,1.832,27.032a3.566,3.566,0,0,1,3.573,1.228c4.424,4.9,5.375,11.1,5.991,17.456.762,7.861.713,15.578.891,23.462.124,5.5,1.923,12.54-2.557,16.552h5.038a30.719,30.719,0,0,0-1.106-8.051Z" transform="translate(-762.854 -207.352)"/><path class="f" d="M801.908,417.707a8.032,8.032,0,0,1-5.68-.872s-1.734.385-1.878.426c-1.533.337-1.92,2.21-1.984,2.833h15.677c-.019-1.036-.018-2.638-.091-3.561C806.465,417.546,803.431,417.525,801.908,417.707Z" transform="translate(-769.179 -252.575)"/><path class="f" d="M774.15,417.141c-.007,0-.011-.008-.017-.011a5.308,5.308,0,0,1-.984.181c-2.111.14-2.571,2.228-2.646,2.915h16.529c-.007-.98-.01-2.484-.1-3.291C782.657,417.221,778.3,419.3,774.15,417.141Z" transform="translate(-762.001 -252.707)"/><path class="f" d="M800.671,281.382l-29.156.379s-2.391,32-.92,33.1c0,0,18.018.92,32.176-.736,0,0,.041-11.032-.946-23.641A50.373,50.373,0,0,0,800.671,281.382Z" transform="translate(-761.874 -208.203)"/><path class="d" d="M804.48,281.382l-22.762.3c6.153,1.832,12.089,3.647,16.12,9.4,4.841,6.906,5.482,15.124,5.615,23.373,1.057-.094,2.1-.2,3.128-.318,0,0,.041-11.032-.946-23.641A50.372,50.372,0,0,0,804.48,281.382Z" transform="translate(-765.683 -208.203)"/><path class="e" d="M806.779,281.383l-3.685.048c-1.977,12.6-4.477,26.041-14.372,33.689a183.39,183.39,0,0,0,20.158-.99s.041-11.032-.946-23.641A50.349,50.349,0,0,0,806.779,281.383Z" transform="translate(-767.983 -208.203)"/><path class="c" d="M789.665,207.939c-1.893-.568-13.68,4.826-15.762,6.341l.757,10.412s-1.136,3.787-.946,5.68a6.431,6.431,0,0,0,1.7,3.408s.378,11.549-.189,13.253-3.029,10.6-3.029,10.6,15.9,3.029,29.156-.379c0,0-3.786-10.412-3.786-17.986s4.165-15.146,4.165-15.146,1.893-6.437.189-9.655C801.923,214.469,791.558,208.507,789.665,207.939Z" transform="translate(-762.558 -184.076)"/><path class="b" d="M791.89,201.754l-6.19,3.31.429,2.7-4.168,1.839s4.9,6.128,15.322-1.471a15.06,15.06,0,0,1-4.168-2.452A5.689,5.689,0,0,1,791.89,201.754Z" transform="translate(-765.763 -182.059)"/><path class="e" d="M801.689,236.684c.174,9.033-1.309,18.8-7.683,25.5a22.7,22.7,0,0,1-3.789,3.182,62.492,62.492,0,0,0,17.053-1.575s-3.786-10.414-3.786-17.986,4.165-15.146,4.165-15.146a25.794,25.794,0,0,0,.621-2.851c-1.884.836-3.716,1.785-5.531,2.769A45.225,45.225,0,0,1,801.689,236.684Z" transform="translate(-768.473 -190.615)"/><path class="e" d="M793.053,201.754l-6.19,3.31.429,2.7-1.787.788a4.61,4.61,0,0,1,.8.842c.566.772,3.45.539,4.185.408a7.094,7.094,0,0,0,3.878-2.372c.313-.312.615-.627.914-.944a6.948,6.948,0,0,1-1-.805A5.689,5.689,0,0,1,793.053,201.754Z" transform="translate(-766.926 -182.059)"/><path class="c" d="M816.932,223.683c-2.145-5.428-2.783-6.019-4.588-6.872-6.176-2.92-6.772,7.251-6.772,7.251l11.545,22.388c3.164,2.277,2.327-1.2,3.221,2.68a4.94,4.94,0,0,0,.885-.076c2.524-.631,2.356-3.408,2.272-5.554S819.078,229.111,816.932,223.683Z" transform="translate(-773.515 -186.83)"/><path class="b" d="M795.923,185.814c-.532-.014-1.672,1.932-1.672,1.932s-2.257-5.914-3.07-6.388-6.429-3.263-8.052-1.255-1.921,6.586-1.976,8.714.213,7.2,3.745,8.941c.906.446,2.914-.333,5.811-1.719,2-.959,3.432-4.037,3.432-4.037l.588-1.129s1.392.355,2.273-1.832S796.455,185.828,795.923,185.814Z" transform="translate(-765.495 -174.715)"/><path class="a" d="M781.905,179.077s-2.98,3.908-2.161,4.993c2.183,2.892,10.452-1.132,10.452-1.132s5.775,2.133,1.506,12.5c-.081.2.532.656,1.76-.845,2.1-2.56,5.341-7.79,5.341-7.79l-8.3-8.209Z" transform="translate(-764.988 -174.455)"/></g><g transform="translate(30.462 0)"><g transform="translate(0.551 77.995)"><path class="g" d="M814.3,281.489l-5.917.524a4.424,4.424,0,0,0-3.9,4.62l-.467,86.72a1.373,1.373,0,0,0,1.365,1.38h.007a1.372,1.372,0,0,0,1.372-1.365l.467-86.763v-.047l0-.047a1.671,1.671,0,0,1,1.439-1.769l5.877-.52a1.372,1.372,0,0,0-.242-2.734Z" transform="translate(-804.016 -281.483)"/></g><g transform="translate(2.399)"><path class="h" d="M847.245,299.1c-5.834,1.064-13,6.975-18.83,7.973a159.5,159.5,0,0,0,4.123,23.82c5.476,20.546,12.649,45.733,12.649,45.733l9.617-2.091s-3.429-23.407-5.046-45.074C848.777,316.313,848.747,298.828,847.245,299.1Z" transform="translate(-813.875 -209.272)"/><path class="i" d="M851.505,408.842c-.422,1.881-7.11,5.271-10.424,5.451s-2.757,2.448-2.757,2.448a4.511,4.511,0,0,0,1.979.828H851a7.718,7.718,0,0,1,.936,0h2.426c1.886-.183,5.32-.619,5.32-.619a18.242,18.242,0,0,0-1.875-8.042Z" transform="translate(-817.117 -245.303)"/><g transform="translate(8.533)"><path class="j" d="M831.638,165.735c-3.109.612-6.882,2.049-8.322,5.44,0,0-1.981,2.793-1.56,5.444.123.77-1.613,3.141-2.241,4.026-.189.267.259.954,1.016,1.128a.92.92,0,0,1,.525.795,13.071,13.071,0,0,0,.3,2.623c.2.774.369.575.27,1.093s-.411,1.889.736,2.311a7.248,7.248,0,0,0,3.624.044c.681-.192,10.314-4.093,12.2-6.1s4.9-6.274,3.13-10.547S834.747,165.123,831.638,165.735Z" transform="translate(-819.471 -165.457)"/><path class="j" d="M840.178,187.915l-11.188,6.607s2.192,1.664,2.7,3.35a6.524,6.524,0,0,0,2.8,3.945l7.706-5.337S839.429,190.666,840.178,187.915Z" transform="translate(-822.597 -172.768)"/><path class="a" d="M837.439,165.891c-7.487-2.014-15.208,2.4-15.208,2.4a5.566,5.566,0,0,0,2.517,2.475s5.9,3.934,5.5,5.288.39.138,1.79.9,2.6,5.518,2.6,5.518l3.548,1.93a12.272,12.272,0,0,0,4.806-9.438C843.094,171.368,839.478,166.438,837.439,165.891Z" transform="translate(-820.378 -165.364)"/><path class="i" d="M826.612,282.857s.3,13.391.6,35.84c.285,21.261,3.721,51.684,3.721,51.684h11.6s2.449-23.733,2.943-45.455,4.38-21.308,4.6-32.3a39.394,39.394,0,0,0-1.01-9.77Z" transform="translate(-821.816 -203.94)"/><path class="d" d="M826.673,285.767a21.117,21.117,0,0,1,.749-2.91h-.81S826.634,283.861,826.673,285.767Z" transform="translate(-821.816 -203.94)"/><path class="d" d="M852.933,282.857c0,.1.014.2.01.3-.506,13.984-4.092,27.655-5.115,41.608-1.075,14.659-1.674,29.347-2.274,44.031a5.7,5.7,0,0,1-.282,1.584h3.391s2.45-23.733,2.943-45.455,4.379-21.308,4.6-32.3a39.4,39.4,0,0,0-1.01-9.77Z" transform="translate(-827.943 -203.94)"/><path class="k" d="M839.974,199.217s-6.157,2.169-8.18,5.034-6.865,11.374-7.747,16.386c-.513,2.917-2.092,25.14-1.988,27.605a35.177,35.177,0,0,0,3.2,13.951s12.349.857,22.3-5.917c0,0,1.981-21.4,1.88-29.8S850.512,201.254,839.974,199.217Z" transform="translate(-820.319 -176.479)"/><path class="d" d="M849.438,226.507c-.1-8.324,1.044-24.88-9.165-27.181a4.335,4.335,0,0,1,.682,2.673,21.09,21.09,0,0,1-4.62,11.845,90.438,90.438,0,0,1,.241,14.772c.7.4-6.153,17.605-14.455,17.276-.053,1.163-.077,2.008-.061,2.385a35.165,35.165,0,0,0,3.2,13.951s12.349.857,22.3-5.918C847.558,256.311,849.538,234.913,849.438,226.507Z" transform="translate(-820.319 -176.515)"/><path class="j" d="M837.8,181.694c-.735-.315-1.635,1.032-1.635,1.032s.238,3.358.314,3.853.964.381,1.736-.206C839.365,185.5,839.223,182.3,837.8,181.694Z" transform="translate(-824.954 -170.71)"/><path class="j" d="M821.881,194.248a3.343,3.343,0,0,0,1.253-.895,5.372,5.372,0,0,0-1.2-.249A.879.879,0,0,0,821.881,194.248Z" transform="translate(-820.197 -174.472)"/></g><path class="i" d="M831.976,408.983c-.406,1.885-7.063,5.333-10.375,5.542S818.865,417,818.865,417a4.984,4.984,0,0,0,1.987.618h10.694a7.6,7.6,0,0,1,.936,0h2.426c1.884-.2,5.314-.6,5.314-.6a18.251,18.251,0,0,0-1.946-8.026Z" transform="translate(-810.727 -245.349)"/><path class="j" d="M848.19,245.333h0c-.1-.863-.193-1.534-.3-2.286l-.338-2.172q-.354-2.158-.755-4.285c-.531-2.841-1.115-5.658-1.732-8.463s-1.27-5.6-1.939-8.383l-1.038-4.186-1.061-4.121a4.117,4.117,0,0,0-7.973,2.053l1.062,4.121,1.01,4.076c.656,2.732,1.3,5.465,1.9,8.2s1.171,5.478,1.681,8.215q.384,2.052.722,4.1l.243,1.564c-.124.075-.239.152-.365.225-.928.551-1.91,1.065-2.9,1.57l-1.514.729-1.545.692c-.514.234-1.047.437-1.57.659s-1.053.433-1.589.63c-1.064.417-2.144.8-3.233,1.174-1.081.394-2.192.709-3.291,1.069-.55.178-1.11.324-1.666.488l-1.673.48-3.379.872-.06.015a2.062,2.062,0,0,0,.737,4.046l3.588-.388,1.793-.242c.6-.085,1.2-.152,1.8-.253,1.192-.2,2.395-.367,3.586-.612,1.2-.22,2.391-.461,3.583-.738q.9-.19,1.79-.424c.6-.154,1.194-.289,1.788-.461l1.786-.505,1.784-.558c1.188-.4,2.376-.815,3.567-1.3.6-.237,1.194-.5,1.8-.773l.918-.446c.33-.173.578-.289,1.045-.578l.008-.005a4.059,4.059,0,0,0,1.744-3.78Z" transform="translate(-809.581 -179.477)"/><path class="k" d="M845.566,215.72c-.615-2.448-2.11-6.629-4.717-7.8-2.362-1.065-6.085.715-6.6,3.259a14.211,14.211,0,0,0,.343,5.317c.815,3.181,5.672,23.867,4.974,25.642-.647,1.644-7.952,4.457-18.352,8.833.424,1.057,1.629,5.231,1.629,5.231s11.76-1.637,15.093-2.573c3.566-1,12.737-3.409,12.187-8.521C850.025,236.988,847.982,225.341,845.566,215.72Z" transform="translate(-811.509 -179.232)"/><path class="e" d="M846.339,217.285a20.05,20.05,0,0,0-1.9-4.916c2.008,9.35,3.817,18.853,1.893,28.266-1.413,6.91-5.8,10.173-11.079,12.456a23.167,23.167,0,0,1-11.682,4.51l.047.163s11.76-1.637,15.093-2.573c3.566-1,12.737-3.408,12.187-8.521C850.8,238.553,848.757,226.907,846.339,217.285Z" transform="translate(-812.283 -180.797)"/><path class="j" d="M813.783,274.053s-6.206,1.523-6.742,3.151a4.654,4.654,0,0,0,1.331,5.158c1.642,1.355,5.7.379,5.7.379a1.3,1.3,0,0,0-.458-.838c-.242-.2-.8.343-.987-.389-.181-.712.514-1.633,2.073-2.3s.629-3.487.629-3.487Z" transform="translate(-806.767 -201.049)"/></g><path class="l" d="M803.791,412.643l-.594,6.173h4.162l-.793-6.173Z" transform="translate(-803.196 -246.551)"/></g><path class="m" d="M833.467,202.028v4.116c.943-1.887,9.862-7.89,9.862-7.89l-.943-2.316C838.7,196.282,833.467,202.028,833.467,202.028Z" transform="translate(-782.673 -175.403)"/></svg>