<svg xmlns="http://www.w3.org/2000/svg" width="89.601" height="176.938" viewBox="0 0 89.601 176.938"><defs><style>.a{fill:#db9873;}.b{fill:#edf4f5;}.c{opacity:0.04;}.d{fill:#003141;}.e{opacity:0.1;}.f{fill:#cae6ed;}.g{fill:#a54724;}.h{opacity:0.05;}.i{opacity:0.06;}.j{fill:#0f3c7a;}.k{fill:#9fabad;}.l{fill:#f16457;}.m{fill:#c5cccd;}</style></defs><path class="a" d="M627.569,180.533s-.633.968.6,2.048l3.033,1.195s-1.438,3.309-1.43,4.786,2.614,2.787,2.614,2.787l.838-.489s3.069,3.105,5.021,2.371l2.424-2.41-6.192-7.489Z" transform="translate(-627.406 -165.672)"/><path class="b" d="M689.9,198.69c-1.387-1.11-1.175-.7-4.786.336-1.57.45-4.359,1.384-5.9,1.935a108.132,108.132,0,0,1-13.68,4.4,2.834,2.834,0,0,1-1.6-.349,30.068,30.068,0,0,1-3.235-1.656c-2.127-1.2-4.178-2.539-6.214-3.887-2.661-1.761-6-3.769-8.638-5.56a1.026,1.026,0,0,0-1.014-.011,6.89,6.89,0,0,0-2.8,2.433c-.515.713-1.2,1.8-.55,2.616a60.181,60.181,0,0,0,4.651,4.348q2.563,2.524,5.306,4.854a53.81,53.81,0,0,0,5.711,4.319,20.28,20.28,0,0,0,5.678,2.78,13.437,13.437,0,0,0,5.82.007,52.772,52.772,0,0,0,6.92-1.824,98.25,98.25,0,0,0,11.873-4.676,5.249,5.249,0,0,0,3.064-3.763C690.842,203.181,691.33,199.837,689.9,198.69Z" transform="translate(-631.938 -170.015)"/><path class="c" d="M664.358,212.257c-7.558-2.4-15.383-6.22-21.111-11.9a4.483,4.483,0,0,1-1.345-2.517c-.491.707-1.027,1.687-.427,2.439a60.191,60.191,0,0,0,4.651,4.348q2.563,2.524,5.3,4.854a53.863,53.863,0,0,0,5.712,4.319,20.27,20.27,0,0,0,5.678,2.78,13.438,13.438,0,0,0,5.82.007,52.78,52.78,0,0,0,6.92-1.824,98.259,98.259,0,0,0,11.873-4.676,5.541,5.541,0,0,0,2.54-2.321C681.777,209.767,666.653,212.985,664.358,212.257Z" transform="translate(-631.938 -171.354)"/><path class="d" d="M736.42,297.226a59.558,59.558,0,0,0-3.2-21.955l-16.923,2.744s2.974,26.071,16.237,90.105h6.861S734.819,321.7,736.42,297.226Z" transform="translate(-656.59 -196.776)"/><path class="e" d="M736.42,297.225a59.556,59.556,0,0,0-3.2-21.954l-16.923,2.744s1.374,12.039,6.413,39.83a5,5,0,0,1,6.449,2.882c3.166,8.366,3.625,17.729,5.5,26.442a149.177,149.177,0,0,1,3.18,20.951h1.558S734.819,321.7,736.42,297.225Z" transform="translate(-656.59 -196.776)"/><path class="d" d="M710.914,269.823l-7.8,5.15s-2.264,32.813,3.682,91.359h5.946s4.117-69.065,5.946-80.957S710.914,269.823,710.914,269.823Z" transform="translate(-652.125 -194.988)"/><path class="e" d="M710.915,269.823l-7.8,5.15s-.905,13.142-.065,37.621a5.385,5.385,0,0,1,3.5,3.321c6.623,15.833,5.761,33.431,5.343,50.416h.846s4.116-69.065,5.946-80.956S710.915,269.823,710.915,269.823Z" transform="translate(-652.125 -194.988)"/><g transform="translate(41.616)"><path class="f" d="M717.214,198.386a16.4,16.4,0,0,0-15.269,16.188,45.121,45.121,0,0,0,.238,5.077,192.968,192.968,0,0,1,.687,31.846l27.373.868c-1.758-19.5,3.282-49.413,3.282-49.413A23.617,23.617,0,0,0,717.214,198.386Z" transform="translate(-693.495 -171.512)"/><path class="g" d="M711.25,231.872l2.855,10.411,5.373-9.571-.21-21.522-1.489-.38Z" transform="translate(-696.55 -175.613)"/><path class="b" d="M699.21,219.443c-.643,18.4-3.68,68.667-3.68,68.667s8.055.66,9.939.43c-.185-14.841,1.629-63.771,2.317-69.843.083-4.559,4.743-20.686,4.823-21.009-4.8.7-12.8,4.106-12.8,4.106C698.923,204.093,699.465,212.126,699.21,219.443Z" transform="translate(-691.389 -171.304)"/><path class="b" d="M738.005,201.242c-3.559-1.986-7.6-3.587-10.6-3.876.168.553-5.1,17.968-5.943,23.873-1.374,9.651-4.077,61.1-4.115,66.959,6.133,3.892,23.127-.588,23.127-.588-.765-8.482-2.727-24.939-2.127-41.6.584-16.241,1.951-32.169,2.6-39.1A5.852,5.852,0,0,0,738.005,201.242Z" transform="translate(-698.553 -171.198)"/><path class="c" d="M737.63,213.858a4.228,4.228,0,0,1-1.755,2.771c.381,3.536,1.168,7.372,1.067,10.888-.227,7.964-7.72,10.561-14.015,13.133a3.441,3.441,0,0,1-1.854.182c-.081,1.191-.162,2.413-.242,3.659a17.394,17.394,0,0,1,3.4-1.912,5.443,5.443,0,0,1,4.392-.082,4.7,4.7,0,0,1,8.784,3.153c-.952,5.914-.818,9.156-1.4,13.751a92.635,92.635,0,0,1-3.41,14.454c-1.257,4.251-2.259,9.559-4.89,13.193-1.777,2.455-4.4,3.389-7.083,4.387,7.239,2.077,20.928-1.53,20.928-1.53-.765-8.482-2.728-24.939-2.127-41.6.584-16.241,1.951-32.169,2.6-39.1a5.881,5.881,0,0,0-1.838-4.841C739.37,207.473,738.336,210.568,737.63,213.858Z" transform="translate(-699.628 -173.495)"/><path class="a" d="M731.485,185.4l-.077-.373-.031-.126a3.116,3.116,0,1,0-6.128,1.129c0-.008.007.054,0,.038s-.009.04-.012.094c-.008.128-.017.326-.045.584a11.251,11.251,0,0,1-1.081,3.735c-.109.241-.222.433-.3.568l-.115.212a4.13,4.13,0,0,0-.318.772,3.915,3.915,0,1,0,7.517,2.189l0-.007.112-.384c.07-.245.176-.592.269-1.018a18.35,18.35,0,0,0,.467-3.139,17.774,17.774,0,0,0-.087-3.18C731.606,186.058,731.539,185.679,731.485,185.4Z" transform="translate(-700.481 -166.269)"/><path class="h" d="M731.491,185.4l-.077-.373-.031-.126a3.116,3.116,0,1,0-6.128,1.129c0-.007.007.054,0,.038s-.009.039-.012.095c-.008.126-.017.326-.045.584a11.251,11.251,0,0,1-1.081,3.735c-.109.241-.222.433-.3.568l-.115.212a4.113,4.113,0,0,0-.318.772,3.931,3.931,0,0,0-.146.846,13.42,13.42,0,0,0,4.748.588,10.2,10.2,0,0,0,3.658-2.671c.046-.367.086-.742.107-1.122a17.769,17.769,0,0,0-.087-3.18C731.612,186.058,731.544,185.679,731.491,185.4Z" transform="translate(-700.486 -166.269)"/><path class="a" d="M717.8,181.191c1.485,3.128,8.135,4.517,11.906,1.844s5.457-11.316,5.457-11.316l-13.387-7.95S715.49,176.328,717.8,181.191Z" transform="translate(-698.533 -160.168)"/><path class="d" d="M724.011,158.409c-.37-.083-5.619,3.123-2.216,6.2,1.522,1.378,9.768,3.864,9.524,4.891s-.567,2.654-.567,2.654l.972,2.055s2.026-2.311,1.864.343a3.205,3.205,0,0,1-1.7,2.91c-.324.171-1.078,3.808-1.078,3.808l1.159-.641a21.561,21.561,0,0,0,4.541-6.093s3.322-7.619,0-10.872C734.476,161.678,726.4,158.941,724.011,158.409Z" transform="translate(-699.637 -158.408)"/><path class="g" d="M723.377,204.917l-2.405,1.464v2.494l1.489.379,2.348-2.06-.573-1.844Z" transform="translate(-699.742 -173.678)"/><path class="f" d="M722.377,195.227l-2.023,1.683a4.258,4.258,0,0,0-.058,6.29l3.55-2.169S721.461,199.348,722.377,195.227Z" transform="translate(-699.067 -170.496)"/><path class="f" d="M726.172,201.059l1.26,2.928a8.517,8.517,0,0,0,5.955-6.724l-.7-1.952A14.149,14.149,0,0,1,726.172,201.059Z" transform="translate(-701.449 -170.524)"/><path class="i" d="M713.1,199.886l-3.657,4.718a276.451,276.451,0,0,0,1.891,31.124s1.887-28.778,6.722-39.039l-5.115,1.674Z" transform="translate(-695.956 -170.976)"/><path class="b" d="M714.517,199.707l-3.657,4.717a173.673,173.673,0,0,0,.826,31.137s2.257-29.119,7.092-39.38l-4.338,1.679Z" transform="translate(-696.309 -170.809)"/><path class="i" d="M734.1,198.513l-2.359-1.3-4.835,7.194s-5.779,18.281-5.189,30.547c0,0,4.561-13.2,6.685-19.1a66.008,66.008,0,0,1,4.718-10.261l-.708-4.481,2.123-.59Z" transform="translate(-699.974 -171.149)"/><path class="b" d="M726.91,204.41s-5.779,18.281-5.189,30.547c0,0,3.656-13.445,5.779-19.342a65.97,65.97,0,0,1,4.717-10.261l-.707-4.481,2.123-.59.471-1.769-2.359-1.3Z" transform="translate(-699.974 -171.149)"/><g transform="translate(0 56.424)"><path class="j" d="M689.365,244.364l7.374,21.255,12.8-1.952-7.374-21.255Z" transform="translate(-689.365 -242.412)"/><path class="a" d="M712.513,257.907a12.553,12.553,0,0,1-2.117-.319l.819,2.277s.41,1.275-6.967,2c-1.046.1-1.047.683-.091,1a22.2,22.2,0,0,0,2.6.182s1.3.547,1.958.865a5,5,0,0,0,3.78.546,21.9,21.9,0,0,0,5.168-2.094l-1.161-3.051A16.531,16.531,0,0,0,712.513,257.907Z" transform="translate(-693.99 -247.394)"/></g><path class="b" d="M743.531,208.559c-.533-1.969-1.051-3.879-3.184-4.673a4.411,4.411,0,0,0-5.8,3.284c-.322,1.7.031,9.617,3.462,23.753.187.769.794,2.652.431,3.327-.235.437-11.867,4.5-16.5,6.12-1.288.451-.894,2.723-.655,3.863.652,3.107,2.468,2.364,5.006,2.163,3.755-.3,13.168-3.387,16.92-3.714,1.634-.142,3.158-.544,4.03-2.117.828-1.494.435-3.26.242-4.859C746.21,225.907,746.115,218.109,743.531,208.559Z" transform="translate(-699.763 -173.252)"/><path class="c" d="M743.9,208.575c-.533-1.969-1.051-3.879-3.184-4.673a4.205,4.205,0,0,0-.956-.233,5.255,5.255,0,0,1,.389.969,81.747,81.747,0,0,1,3.471,18.4c.235,4.268.2,8.98-1.9,12.834-3.739,6.871-11.833,8.706-19.555,9.788.877,1.422,2.45.914,4.492.752,3.755-.3,13.168-3.387,16.92-3.714,1.634-.142,3.158-.544,4.03-2.117.828-1.494.435-3.26.241-4.859C746.583,225.922,746.488,218.125,743.9,208.575Z" transform="translate(-700.136 -173.268)"/></g><path class="d" d="M705.428,408.313c-.341,1.945-5.633,6.391-8.422,6.607s-2.619,1.659-2.619,1.659a3.488,3.488,0,0,0,1.673.815h9.007a5.207,5.207,0,0,1,.789,0H707.9a26.235,26.235,0,0,0,3.267-.684,22.146,22.146,0,0,0-1.639-8.279Z" transform="translate(-649.397 -240.457)"/><path class="d" d="M738.064,408.313c-.342,1.945-2.184,5.856-3.3,6.231-2.652.891-2.251,2.035-2.251,2.035a3.494,3.494,0,0,0,1.674.815h4.889a5.207,5.207,0,0,1,.789,0h2.043a26.2,26.2,0,0,0,3.267-.684,22.145,22.145,0,0,0-1.639-8.279Z" transform="translate(-661.907 -240.457)"/><g transform="translate(67.688 24.019)"><g transform="translate(0 10.483)"><g transform="translate(0 2.158)"><path class="k" d="M730.2,228.262a.85.85,0,0,1-.5-.459,16.035,16.035,0,0,1-.492-9.827A22.506,22.506,0,0,1,730.9,213.2l-.433-.212a23.029,23.029,0,0,0-1.73,4.87,16.469,16.469,0,0,0,.515,10.115,1.324,1.324,0,0,0,.763.715c1.464.591,4.325-.531,4.447-.579l-.192-.427C734.241,227.691,731.473,228.778,730.2,228.262Z" transform="translate(-728.181 -212.987)"/></g><path class="k" d="M737.912,234.013l-.839.321a.458.458,0,0,0-.265.611.507.507,0,0,0,.643.263l.838-.32a.458.458,0,0,0,.265-.611A.506.506,0,0,0,737.912,234.013Z" transform="translate(-731.001 -217.721)"/><g transform="translate(1.39 3.454)"><path class="k" d="M738.451,214.976a22.616,22.616,0,0,1,.054,5.069,16.029,16.029,0,0,1-3.649,9.137.85.85,0,0,1-.62.273c-1.376.075-3.643-1.85-3.665-1.869l-.32.342c.1.085,2.442,2.073,4.02,1.989a1.327,1.327,0,0,0,.953-.429,16.466,16.466,0,0,0,3.763-9.4,23.056,23.056,0,0,0-.058-5.168Z" transform="translate(-730.25 -214.916)"/></g><path class="k" d="M729.44,232.534a.507.507,0,0,0-.693.04.458.458,0,0,0,.053.664l.689.575a.505.505,0,0,0,.693-.04.457.457,0,0,0-.052-.664Z" transform="translate(-728.328 -217.208)"/><g transform="translate(1.522)"><path class="l" d="M735.616,209.85a4.229,4.229,0,0,0-5.169,3.509l.975.163a3.537,3.537,0,0,1,6.971,1.161l.976.163A4.229,4.229,0,0,0,735.616,209.85Z" transform="translate(-730.447 -209.774)"/></g></g><g transform="translate(5.031)"><path class="l" d="M735.785,194.167c-.015.115-.114.972-.114.972s.59,1.042.609,1.1a10.192,10.192,0,0,1,1.028,3.285,17.473,17.473,0,0,1-.224,5.321l.682.157a17.847,17.847,0,0,0,.238-5.548C737.818,198.081,736.982,194.776,735.785,194.167Z" transform="translate(-735.671 -194.167)"/></g></g><g transform="translate(53.12 24.334)"><g transform="translate(2.368)"><path class="l" d="M716.88,195.424c-1.736.774-3.572,2.644-4.739,5.946a71.839,71.839,0,0,0-2.124,9.972l.841.029a74.01,74.01,0,0,1,2.085-9.75,10.234,10.234,0,0,1,5.605-5.928l.881-.525.273-.525A8.119,8.119,0,0,0,716.88,195.424Z" transform="translate(-710.017 -194.637)"/></g><g transform="translate(0 16.415)"><path class="m" d="M709.392,219.485a2.108,2.108,0,1,0,1.934,2.373A2.166,2.166,0,0,0,709.392,219.485Z" transform="translate(-706.626 -219.204)"/><path class="k" d="M709.62,220.514a1.419,1.419,0,1,0,1.379,1.6A1.5,1.5,0,0,0,709.62,220.514Zm1.081,1.562a1.283,1.283,0,1,1-1.118-1.279A1.207,1.207,0,0,1,710.7,222.076Z" transform="translate(-706.944 -219.543)"/><path class="k" d="M709.292,219.1a2.37,2.37,0,1,0,2.172,2.668A2.437,2.437,0,0,0,709.292,219.1Zm1.628,2.6a1.951,1.951,0,1,1-1.695-2.079A1.9,1.9,0,0,1,710.919,221.7Z" transform="translate(-706.492 -219.076)"/></g></g></svg>