<svg xmlns="http://www.w3.org/2000/svg" width="66.957" height="169.341" viewBox="0 0 66.957 169.341"><defs><style>.a{fill:#facaae;}.b{fill:#edf4f5;}.c{opacity:0.05;}.d{fill:#f6f8fa;}.e{fill:#0f353e;}.f{fill:#0c70c7;}.g{fill:#003141;}.h{fill:#00758c;}</style></defs><path class="a" d="M346.423,213.783l-2.03-1.031-3.272,2.065-3.059,7.465,2.921,2.911,1.15-3.354c1.544.343,4.134-3.814,4.134-3.814l1.16.189-.206-3.223A1.46,1.46,0,0,0,346.423,213.783Z" transform="translate(-282.652 -183.293)"/><path class="b" d="M312.545,232.537c-.089.1-.189.208-.293.318a97.615,97.615,0,0,1-9.745-17.335c-.965-3.385-5.1-5.585-8.025-3.465-3.137,2.273-.391,9.283.338,12.422,1.881,8.1,7.719,13.556,14.293,17.992a4.208,4.208,0,0,0,.8.424c4.357,2.264,8.6-1.48,13.016-9.742,1.309-2.446,5.213-9.925,5.213-9.925s-3.538-1.671-5-2.517C323.036,220.647,318.8,225.442,312.545,232.537Z" transform="translate(-267.862 -182.791)"/><path class="c" d="M296.495,216.653a4.491,4.491,0,0,1,3.638-4.4,4.8,4.8,0,0,0-5.65-.2c-3.137,2.273-.391,9.283.338,12.422,1.881,8.1,7.719,13.556,14.293,17.992a4.208,4.208,0,0,0,.8.424c3.94,2.048,7.785-.834,11.756-7.514a15.932,15.932,0,0,1-7.466,4.249C303.323,242.038,296.219,225.278,296.495,216.653Z" transform="translate(-267.862 -182.792)"/><g transform="translate(0.893 0)"><path class="d" d="M270.021,414.067c-2.589-.309-6.338-5.058-6.6-7.1l-5.152-1.113A42.376,42.376,0,0,0,256.9,413.9a1.625,1.625,0,0,0,1.108,1.667,13.135,13.135,0,0,0,1.814.464h12.315c.089-.05.182-.095.269-.152C272.408,415.881,272.609,414.376,270.021,414.067Z" transform="translate(-256.897 -246.692)"/><path class="a" d="M267.285,337.967a4.68,4.68,0,0,0-4.87,4.481l0,.058a63.712,63.712,0,0,0-1.478,9.171c-.452,5.169-.861,21.754-1.262,25.632s-.693,6.455-.693,6.455l0,.04c-.138,1.327,4.9,2.229,5.2.8l1.332-6.4c.783-3.843,1.8-8.972,2.767-14.121s1.871-10.321,2.489-14.232c.3-1.959.557-3.591.712-4.747s.254-1.812.254-1.812c.021-.147.036-.3.042-.455A4.679,4.679,0,0,0,267.285,337.967Z" transform="translate(-257.579 -224.402)"/><path class="e" d="M278.056,168.947c-8.13.813-10.859,6.416-10.859,11.642,0,12.315,7.731,11.022,9.115,10.572,5.778-1.879,10.364-5.159,10.364-11.691S284.1,168.342,278.056,168.947Z" transform="translate(-260.279 -168.894)"/><path class="d" d="M311.813,413.653c-2.657-.134-7.836-4.7-8.228-6.767l-5.038.414a22.338,22.338,0,0,0-.113,8.362s.864.463,7.086.711h6.511a6.1,6.1,0,0,0,2.327-1.037S314.471,413.788,311.813,413.653Z" transform="translate(-270.432 -247.031)"/><path class="a" d="M272.224,271.562a7.812,7.812,0,0,0-7.794,7.829l.095,41.811v.009a4.587,4.587,0,0,0,9.121.682l6.318-41.326.009-.056a7.819,7.819,0,0,0-7.748-8.949Z" transform="translate(-259.371 -202.602)"/><path class="a" d="M298.274,320.1v-.023c-.005-.147-.017-.295-.036-.444s-.046-.294-.079-.437c-.012-1.171-.035-2.934-.077-5.087-.081-3.982-.236-9.28-.439-14.568s-.438-10.572-.631-14.536l-.339-6.617a8.568,8.568,0,0,0-.152-1.184,7.813,7.813,0,1,0-15.3,3.167l.009.046,1.325,6.4c.785,3.849,1.816,8.987,2.808,14.128s1.941,10.284,2.616,14.14c.472,2.71.813,4.777.974,5.768a42.9,42.9,0,0,0,0,7.794c.413,3.917,3.869,34.168,3.869,34.168.107,1.332,5.23,1.3,5.257-.152,0,0,.2-10.6.286-21.22.042-5.308.052-10.623.019-14.629S298.274,320.1,298.274,320.1Z" transform="translate(-264.83 -202.408)"/><path class="c" d="M298.274,320.076c-.005-.147-.017-.295-.036-.444s-.046-.294-.079-.437c-.012-1.171-.035-2.934-.077-5.087-.081-3.982-.236-9.28-.439-14.568s-.438-10.572-.631-14.536l-.339-6.617a8.568,8.568,0,0,0-.152-1.184,7.813,7.813,0,1,0-15.3,3.167l.009.046,1.325,6.4c.785,3.849,1.816,8.987,2.808,14.128s1.941,10.284,2.616,14.14c.472,2.71.813,4.777.974,5.768a42.9,42.9,0,0,0,0,7.794c.413,3.917,3.869,34.168,3.869,34.168.032.4.518.673,1.178.826-1.188-4.915-4.266-33.02-.019-40.081a5.018,5.018,0,0,1,4.314-2.6c-.013-.553-.022-.861-.022-.861Z" transform="translate(-264.83 -202.408)"/><path class="a" d="M273.676,180.86s.216,7.487,3.152,10.308,9.012,2.694,10.784.311c2.755-3.706-1.081-17.269-1.081-17.269Z" transform="translate(-262.406 -170.639)"/><path class="c" d="M267.285,337.967a4.68,4.68,0,0,0-4.87,4.481l0,.058a63.714,63.714,0,0,0-1.478,9.171c-.452,5.169-.861,21.754-1.262,25.632s-.693,6.455-.693,6.455l0,.04c-.032.306.219.586.615.824a49.163,49.163,0,0,1,1.014-6.768c1.938-9.223,1.649-19.372,4.289-29.19a5.115,5.115,0,0,1,6.589-3.646c.154-1.1.242-1.732.242-1.732.021-.147.036-.3.042-.455A4.679,4.679,0,0,0,267.285,337.967Z" transform="translate(-257.579 -224.402)"/><path class="f" d="M290.911,260.6c-6,.274-12.018.447-17.994.858a3.671,3.671,0,0,1-.154.386c-2.991,6.286-2.589,13.79-2.485,20.584.035,2.255.151,4.5.32,6.742a2.951,2.951,0,0,1,.531,1.232,41.97,41.97,0,0,1,.571,8.743q.535,3.811,1.181,7.612a3.163,3.163,0,0,1-1.075,3.006q.039.722.071,1.441l24.285-.5c0-2.427-2.626-42.368-3.854-45.074A26.52,26.52,0,0,1,290.911,260.6Z" transform="translate(-261.265 -199.003)"/><path class="g" d="M288.611,240.951l1.875-13.158c-.267-2.8-.525-5.6-.9-8.39-.531-3.96-.977-7.525-4.136-10.265a2.932,2.932,0,0,1-.785-1.052,24.027,24.027,0,0,0-7.874.2c-4.6.969-8.186,4.131-12.343,6.185.107,1.883.946,3.977,1.31,6.376l2.194,17.833a2.582,2.582,0,0,1,2.176,2.914c-.287,3.518-.413,7.049-.737,10.561h21.791a21.426,21.426,0,0,0-.764-3.844A37.991,37.991,0,0,1,288.611,240.951Z" transform="translate(-259.377 -181.686)"/><path class="a" d="M287.174,202.3l-.108-.256c-.071-.162-.171-.4-.276-.688a16.949,16.949,0,0,1-.654-2.243,19.792,19.792,0,0,1-.374-2.376c-.032-.326-.047-.59-.058-.766l-.011-.173a.461.461,0,0,1,0-.067l0-.035a3.122,3.122,0,0,0-6.2-.609l-.072.458c-.038.269-.089.642-.132,1.081a26.44,26.44,0,0,0-.122,3.224,24.367,24.367,0,0,0,.294,3.282c.068.452.145.831.2,1.1s.088.418.088.418a4.148,4.148,0,0,0,.226.72,3.913,3.913,0,0,0,7.206-3.053Z" transform="translate(-264.205 -176.626)"/><path class="c" d="M284.735,201.937a9.448,9.448,0,0,1-1.807-.144,7.76,7.76,0,0,1-1.679-.334,7.251,7.251,0,0,1-2.035-1.1c-.005.1-.007.218-.012.326,1.188,1.189,2.349,2.384,3.892,2.566a7.826,7.826,0,0,0,2.987-.293c.118-.032.239-.072.361-.114-.1-.337-.192-.694-.274-1.062A13.683,13.683,0,0,1,284.735,201.937Z" transform="translate(-264.22 -179.223)"/><path class="b" d="M271.446,206.891c-.008-.037-.006-.071-.013-.107a11.938,11.938,0,0,0-2.6.634c-12.19,5.427-8.866,7.028-8.011,12.664,0,0,4.608,23.689,3.7,24.533-.018.017-3.2,11.5-3.829,17.783-.779,7.788-2.562,36.4-2.856,37.9l26.351-.39c.351-5.274-1.3-57.5-1.558-59.841C280.913,224.784,273.676,216.925,271.446,206.891Z" transform="translate(-257.205 -181.334)"/><path class="c" d="M264.368,230.4a31.879,31.879,0,0,1-1.352-12.669,4.494,4.494,0,0,1-1.689-2.888c-1.415,2.207-.987,4.713-.505,7.882,0,0,4.607,23.689,3.7,24.533-.018.017-3.2,11.5-3.829,17.783-.779,7.788-2.562,36.4-2.856,37.9l8.845-.131c-2.83-4.865-3.382-10.932-3.334-16.7.075-9,1.647-17.729,3.527-26.5,1.173-5.473,2.293-11.191,1.337-16.791C267.483,238.577,265.545,234.547,264.368,230.4Z" transform="translate(-257.205 -183.981)"/><path class="b" d="M299.221,240.522c.237-2.088.6-6.118.93-9.927a5.039,5.039,0,0,0,2.726-5.207l-.075-.13-1.546-5.539c1.138-5.564,2.309-9.029-8.25-13.133-.015-.006-.036-.007-.052-.011,8.992,53.679,7.276,87.664,6.916,93.14l6.361-.519c-.213-1.46-2.9-34.395-5.193-49.586A88.856,88.856,0,0,0,299.221,240.522Z" transform="translate(-268.736 -181.265)"/><path class="e" d="M272.674,174.407l-2.468,9.424,2.523,1.494s7.372-4.909,8.943-9.62c0,0,3.118,2.292,4.913,2.292l-1.031-3.98Z" transform="translate(-261.267 -170.576)"/></g><path class="c" d="M277.1,203.2l-4.284,3.44,2.912,4.518-2.093,3.31,8.508,9.739,2.8,3.471c-.779-1.883-.936-5.427-3.947-11.626A41.944,41.944,0,0,1,277.1,203.2Z" transform="translate(-261.23 -180.156)"/><path class="b" d="M277.1,203.2l-4.284,3.44,3.911,4.024-2.093,3.311,9.865,11.877c-.778-1.882-.493-3.6-3.5-9.8A41.944,41.944,0,0,1,277.1,203.2Z" transform="translate(-261.23 -180.156)"/><path class="c" d="M293.585,205.862l-3.959-3.05a94.173,94.173,0,0,1,2.4,13.111c.39,3.5,3.44,14.343,3.44,14.343l.924-18.166-2.17-3.217Z" transform="translate(-266.75 -180.03)"/><path class="b" d="M293.167,208.746l.418-2.884-3.959-3.05a94.173,94.173,0,0,1,2.4,13.111c.39,3.5,3.44,14.343,3.44,14.343l-.13-18.3Z" transform="translate(-266.75 -180.03)"/><path class="a" d="M275.059,189.807s-1.88-1.6-2.359-.954c-.926,1.253.943,5.567,2.83,3.963S275.059,189.807,275.059,189.807Z" transform="translate(-261.113 -175.396)"/><g transform="translate(13.624 9.497)"><g transform="translate(9.615)"><path class="h" d="M294.444,184.7a2.014,2.014,0,0,0-.743-1.364,1.419,1.419,0,0,0-1.073-.286l-1.012.154a1.926,1.926,0,0,0-1.428,2.253l.013.094a2.007,2.007,0,0,0,.8,1.392,1.489,1.489,0,0,0,.856.277,1.418,1.418,0,0,0,.308-.034l.995-.218a1.911,1.911,0,0,0,1.3-2.181Zm-1.4,1.744-.995.218a.922.922,0,0,1-.741-.159,1.472,1.472,0,0,1-.574-1.024l-.013-.095a1.41,1.41,0,0,1,.976-1.65l1.012-.154a.879.879,0,0,1,.126-.009.9.9,0,0,1,.543.193,1.479,1.479,0,0,1,.534,1l.011.088A1.4,1.4,0,0,1,293.043,186.443Z" transform="translate(-290.167 -183.033)"/></g><g transform="translate(3.564 0.707)"><path class="h" d="M286.293,185.876a2.149,2.149,0,0,0-.815-1.426,1.779,1.779,0,0,0-1.336-.345l-1.245.186a2.146,2.146,0,0,0-1.711,2.5l.015.1a2.15,2.15,0,0,0,.884,1.458,1.854,1.854,0,0,0,1.462.294l1.222-.265a2.116,2.116,0,0,0,1.537-2.406Zm-1.638,1.977-1.222.266a1.323,1.323,0,0,1-1.043-.211,1.616,1.616,0,0,1-.658-1.1l-.015-.1a1.609,1.609,0,0,1,1.259-1.886l1.245-.186a1.144,1.144,0,0,1,.179-.013,1.258,1.258,0,0,1,.756.257,1.607,1.607,0,0,1,.606,1.069l.013.1A1.6,1.6,0,0,1,284.654,187.853Z" transform="translate(-281.159 -184.085)"/></g><g transform="translate(0 3.034)"><path class="h" d="M279.393,187.551l-3.286.176a.269.269,0,0,0,.014.537h.014l3.286-.176a.269.269,0,1,0-.029-.537Z" transform="translate(-275.852 -187.55)"/></g><g transform="translate(8.241 1.955)"><path class="h" d="M288.121,186.447l.41.347a.729.729,0,0,1,1.091-.118l.173-.206-.175.2.175-.2.175-.2a1.411,1.411,0,0,0-.96-.317A1.289,1.289,0,0,0,288.121,186.447Z" transform="translate(-288.121 -185.944)"/></g></g><g transform="translate(0 29.862)"><path class="a" d="M268.511,293.829s.526,4.022,1.052,6.033l.526,2.011,6.312-2.011s.077-2.63-3.156-7.734C271.877,289.968,268.511,293.829,268.511,293.829Z" transform="translate(-259.818 -239)"/><path class="b" d="M267.04,218.4a4.286,4.286,0,0,0-8.437-1.519c-.4,2.235-3.9,22.064-2.832,30.019.746,5.542,7.057,17.857,8.425,22.18,2.741-.815,2.9-.848,5.606-1.758-1.79-5.649-4.943-17.168-5.534-21.565C263.513,240.142,266.013,224.1,267.04,218.4Z" transform="translate(-255.569 -213.352)"/><path class="c" d="M259.547,222.708a28.866,28.866,0,0,1,1.214-8.567,4.275,4.275,0,0,0-2.158,3c-.4,2.235-3.9,22.064-2.832,30.019.746,5.542,7.057,17.857,8.425,22.18l1.859-.553C257.038,255.94,256.284,238.168,259.547,222.708Z" transform="translate(-255.569 -213.611)"/><path class="a" d="M278.418,301.156a.674.674,0,0,0-.563.769l1.071,6.924a.674.674,0,1,0,1.331-.206l-.791-5.834C279.409,302.442,278.785,301.1,278.418,301.156Z" transform="translate(-262.883 -242.179)"/><path class="a" d="M276.23,303.34a.673.673,0,0,0-.562.768l1.071,6.924a.673.673,0,1,0,1.331-.206l-.791-6.995C277.221,303.465,276.6,303.284,276.23,303.34Z" transform="translate(-262.165 -242.893)"/><path class="a" d="M273.7,304a.674.674,0,0,0-.563.768L274.2,311.7a.674.674,0,0,0,1.331-.206l-.56-7.3C274.919,303.819,274.064,303.946,273.7,304Z" transform="translate(-261.333 -243.092)"/><path class="a" d="M270.818,302.307a.674.674,0,0,0-.563.768L271.326,310a.674.674,0,0,0,1.331-.206l-.559-6.685C272.041,302.741,271.185,302.25,270.818,302.307Z" transform="translate(-260.388 -242.556)"/></g><path class="a" d="M350.914,206.9l-4.461,2.357-3.838,3.638,2.07.546,3.28-3.565,2.387-1.54C351.6,207.491,350.914,206.9,350.914,206.9Z" transform="translate(-284.148 -181.372)"/></svg>