<svg xmlns="http://www.w3.org/2000/svg" width="163.262" height="167.312" viewBox="0 0 163.262 167.312"><defs><style>.a{fill:#facaae;}.b{opacity:0.05;}.c{fill:#edf4f5;}.d{fill:#fff;}.e{fill:#d4916d;}.f{fill:#0f3c7a;}.g{fill:#f16457;}.h{opacity:0.06;}.i{fill:#989898;}.j{opacity:0.04;}.k{fill:#c9dde1;}.l{fill:#003141;}.m{fill:#4f808a;}.n{fill:#3c626a;}.o{opacity:0.1;}.p{fill:#74a639;}.q{opacity:0.09;}.r{fill:#0f353e;}.s{opacity:0.08;mix-blend-mode:luminosity;isolation:isolate;}.t{fill:#8f705c;}</style></defs><path class="a" d="M205.874,259.316l-1.982-.371c-2.939-2.249-9.894-7.927-11.363-8.932-.836-.573-1.679-1.136-2.508-1.72-.1-.068-.742-.487-1.164-.807-4.526-7.35-6.342-16.138-6.908-24.669a3.813,3.813,0,0,0-6.271-2.78c-1.167,1.028-1.284,2.393-1.315,3.846a45.11,45.11,0,0,0,.2,5.041,46.489,46.489,0,0,0,6.68,20.819,13.367,13.367,0,0,0,2.321,3.068,23.614,23.614,0,0,0,3.847,2.395c3.152,1.767,6.406,3.383,9.689,4.893,1.879.864,3.785,1.81,5.729,2.591l2.769,1.273s3.75.672,3.974-1.008a2.868,2.868,0,0,0-.273-1.417C208.494,259.615,208.336,259.707,205.874,259.316ZM188.79,247.425l-.03-.039Zm-.3-.3c0,.015.286.279.314.314v0C188.614,247.3,188.475,247.172,188.489,247.128Z" transform="translate(-138.05 -187.387)"/><path class="b" d="M203.758,259.24c-3.339-1.83-6.423-4.078-9.8-5.857-6.142-3.235-11.177-6.978-11.2-14.553a4.363,4.363,0,0,1,1.186-3.147,68.709,68.709,0,0,1-1.994-12.867,3.813,3.813,0,0,0-6.271-2.78c-1.167,1.028-1.284,2.393-1.315,3.846a45.11,45.11,0,0,0,.2,5.041,46.489,46.489,0,0,0,6.68,20.819,13.367,13.367,0,0,0,2.321,3.068,23.614,23.614,0,0,0,3.847,2.395c3.152,1.767,6.406,3.383,9.689,4.893,1.879.864,3.785,1.81,5.729,2.591l2.769,1.273s3.75.672,3.974-1.008a2.694,2.694,0,0,0-.214-1.258A37.626,37.626,0,0,1,203.758,259.24Z" transform="translate(-138.05 -187.387)"/><path class="c" d="M182.786,225.017c-.107-.914-1.089-5.542-1.089-5.542-.132-1.893-3.321-4.064-5.261-4.142-2.082-.083-1.534,3.169-1.617,5.251,0,0-.01.238-.028.684-.011.422-.031,1.026-.017,1.787a51.408,51.408,0,0,0,.485,6.23c.144,1.057.345,2.2.585,3.376.061-.028.121-.057.183-.083,2.48-1.029,4.982-1.95,7.526-2.736-.118-.607-.223-1.2-.319-1.763C183.056,226.958,182.893,225.931,182.786,225.017Z" transform="translate(-138.186 -186.149)"/><path class="d" d="M215.479,407.257c-3.135,1.052-9.453-.97-10.78-3.041l-6.011,1.435a25.174,25.174,0,0,0,2.141,9.825s3.962-.2,5.828-1.447,9.706-1.854,12.483-6.09C219.14,407.938,218.615,406.2,215.479,407.257Z" transform="translate(-146.038 -248.164)"/><path class="b" d="M201.666,405.294l-2.978.711a25.165,25.165,0,0,0,2.141,9.825s3.961-.2,5.829-1.447a19.594,19.594,0,0,1,4.1-1.375,17.052,17.052,0,0,1-7.665-3.709A3.914,3.914,0,0,1,201.666,405.294Z" transform="translate(-146.038 -248.518)"/><g transform="translate(0 0)"><g transform="translate(58.566 33.578)"><path class="a" d="M286.929,306.538c-.6-.447-5.96-.3-5.96-.3l1.192,4.916,2.681.6,3.278.745c0,3.129,2.309,2.98,2.309,2.98a34.173,34.173,0,0,0,.67-4.618A37.418,37.418,0,0,0,286.929,306.538Z" transform="translate(-231.619 -249.567)"/><path class="e" d="M246.312,326.224v-.009S246.268,326.217,246.312,326.224Z" transform="translate(-220.234 -256.133)"/><path class="e" d="M246.261,326.229c-.023.206-1.448,13.422,5.99,16.379a71.462,71.462,0,0,0,12.219.6c6.193-.3,26.549-.609,26.549-.609l3.231-11.683c-3.112-1.011-23.421-3.6-33.513-4.007C248.13,326.392,246.44,326.261,246.261,326.229Z" transform="translate(-220.183 -256.138)"/><path class="a" d="M315.592,333.159a7.381,7.381,0,0,0-5.21-.157c-.179.046-1.983,14.483-1.836,14.4,3.622,2.47,5.184,6.165,6.01,9.471,1.457,5.829,11.517,21,11.517,21s5.782,1.31,5.415-.451c-.263-.031-11.05-35.958-13.686-41.663C317.786,335.569,316.71,333.3,315.592,333.159Z" transform="translate(-240.671 -258.234)"/><path class="b" d="M318.755,354.129c-3.037-5.72-6.343-11.359-7.927-17.7a4.447,4.447,0,0,1,.5-3.548c-.309.057-.623.123-.945.206-.179.046-1.983,14.483-1.836,14.4,3.622,2.47,5.184,6.166,6.01,9.471,1.458,5.829,11.517,21,11.517,21a17.267,17.267,0,0,0,4.281.437c-1.468-2.473-2.818-5.041-4.072-7.688C323.682,365.22,321.6,359.494,318.755,354.129Z" transform="translate(-240.671 -258.323)"/><path class="f" d="M259.59,324.334c-14.536-.511-13.642,1.233-13.642,1.233s-3.4,17.878,4.1,20.858a71.5,71.5,0,0,0,12.219.6c4.056-.2,17.828-.717,25.464,1.149,3.839-6.617,3.208-12.051,4.385-18.82-1.672-.045-23.922-2.346-31.408-4.553A5.588,5.588,0,0,1,259.59,324.334Z" transform="translate(-219.869 -255.485)"/><g transform="translate(15.166)"><path class="g" d="M257.123,276.474c-3.544-5.484-10.5-14.887-10.5-14.887s-8.01-8.332-12.528-1.038c0,0-3.64,7.6-1.208,14.97s5.453,16.163,5.8,20.605,1.585,13.981,2.922,17.1l19.786-8.138s-4.747-18.538-5.447-20.223C255.948,284.864,260.668,281.958,257.123,276.474Z" transform="translate(-230.725 -233.591)"/><path class="b" d="M233.721,263.346c-.862,2.217-2.764,8.216-.832,14.074,2.431,7.37,5.453,16.163,5.8,20.605s1.585,13.981,2.922,17.1l19.786-8.138s-4.579-17.88-5.4-20.107C248.718,289.4,232.15,272.387,233.721,263.346Z" transform="translate(-230.725 -235.492)"/><path class="a" d="M246.372,248.225l-5.289-.292-2.557,7.207c2.2,2.208,5.732,3.154,7.084,2.773a1.936,1.936,0,0,0,1.163-.876C245.839,254.088,246.125,251.633,246.372,248.225Z" transform="translate(-232.85 -230.432)"/><path class="h" d="M241.759,247.934l-1.173,3.307a12.638,12.638,0,0,0,6.346,3.406,32.552,32.552,0,0,1,.116-6.423Z" transform="translate(-233.527 -230.432)"/><path class="a" d="M241.812,224.136c-5.658-.6-10.866,4.529-10.864,7.4,0,2.048,1.241,5.175,2.943,8.2a10.689,10.689,0,0,0,6.239,5.023,11.3,11.3,0,0,0,3.661.588c6.188-.437,5.562-3.578,5.828-7.248S247.469,224.739,241.812,224.136Z" transform="translate(-230.362 -222.603)"/><path class="i" d="M237.643,222.11c-4.488.737-6.408,1.513-7.4,7.572a12.241,12.241,0,0,0,3.029,10.28,13.427,13.427,0,0,0,4.023,2.98c-1.443-4.606,2.135-11.67,2.135-11.67l8.244-2.483C248.864,224.12,244.566,220.973,237.643,222.11Z" transform="translate(-230.076 -221.877)"/><path class="j" d="M235.352,234.471a14.566,14.566,0,0,1-3.9-7.245,14.385,14.385,0,0,0-1.215,4.212,12.243,12.243,0,0,0,3.029,10.28,13.428,13.428,0,0,0,4.023,2.98c-.8-2.56-.053-5.879.771-8.323A10.239,10.239,0,0,1,235.352,234.471Z" transform="translate(-230.076 -223.633)"/></g><g transform="translate(0 40.712)"><g transform="translate(27.804 51.423)"><path class="k" d="M248.891,380.114l3.9.015.325-21.066-3.9-.015Z" transform="translate(-248.891 -359.048)"/></g><g transform="translate(3.063)"><g transform="translate(0.256 0.234)"><path class="k" d="M227.7,287.023l-.025-.094a5.235,5.235,0,0,0-6.343-3.952l-8.1,2.26a1.137,1.137,0,0,0-.765,1.384,1.077,1.077,0,0,0,1.32.8l8.06-2.251a3.113,3.113,0,0,1,3.753,2.4l3.328,16.122.347,31.561c.058,0,2.159-.008,2.159-.008l-.351-31.721Z" transform="translate(-212.437 -282.837)"/></g><g transform="translate(16.063 28.902)"><path class="l" d="M235.988,326.111l-.016,19.03,50.147-.446-.5-19.177Z" transform="translate(-235.972 -325.518)"/></g><g transform="translate(80.734 83.915)"><path class="l" d="M341.188,407.487l-7.8,2.352a1.654,1.654,0,0,0-1.073,2.032,1.56,1.56,0,0,0,1.94,1.124l7.8-2.352a1.654,1.654,0,0,0,1.073-2.032A1.559,1.559,0,0,0,341.188,407.487Z" transform="translate(-332.253 -407.422)"/></g><g transform="translate(16.75 20.823)"><path class="k" d="M285,314.809a6.5,6.5,0,0,0-4.676-1.288l-42.29,1.46a1.095,1.095,0,0,0,.088,2.188l42.323-1.46.073-.005c2.533,0,3.661,1.656,3.663,2.432l2.339,50.009a1.086,1.086,0,0,0,1.077,1.044h.052a1.089,1.089,0,0,0,1.027-1.146l-2.337-49.958A4.279,4.279,0,0,0,285,314.809Z" transform="translate(-236.995 -313.491)"/></g><g transform="translate(10.218 70.116)"><path class="k" d="M284.175,386.879H228.3a1.132,1.132,0,0,0,.044,2.26h55.915a1.111,1.111,0,0,0,1.035-1.175A1.1,1.1,0,0,0,284.175,386.879Z" transform="translate(-227.27 -386.878)"/></g><path class="l" d="M220.345,282.541l-6.987,1.8a1.8,1.8,0,0,0-1.251,2.165,1.706,1.706,0,0,0,2.068,1.31l6.987-1.8a1.8,1.8,0,0,0,1.251-2.165A1.7,1.7,0,0,0,220.345,282.541Z" transform="translate(-212.057 -282.489)"/><g transform="translate(17.274 50.425)"><path class="k" d="M290.583,361.771a6.2,6.2,0,0,0-7.045-4.109H237.774c.077.342.151,1.873.17,2.26h45.7l.214-.023a4.069,4.069,0,0,1,4.721,2.708l12.952,33.531a1.081,1.081,0,0,0,1,.707,1.045,1.045,0,0,0,.4-.083,1.15,1.15,0,0,0,.6-1.472Z" transform="translate(-237.774 -357.562)"/></g><g transform="translate(66.677 58.06)"><path class="k" d="M315.118,368.93l-3.792.552c.05.754.085,1.507.1,2.258l3.79-.553a1.131,1.131,0,0,0-.094-2.258Z" transform="translate(-311.326 -368.93)"/></g></g><g transform="translate(3.023 35.996)"><g transform="translate(26.517)"><rect class="d" width="0.969" height="54.002"/></g><g transform="translate(0 26.517)"><rect class="d" width="54.002" height="0.968"/></g><g transform="translate(7.569 7.563)"><rect class="d" width="54.002" height="0.968" transform="matrix(0.707, -0.707, 0.707, 0.707, 0, 38.191)"/></g><g transform="translate(7.566 7.566)"><rect class="d" width="0.968" height="54.002" transform="translate(0 0.685) rotate(-45)"/></g></g><g transform="translate(4.87 37.843)"><g transform="translate(14.319 0.046)"><rect class="d" width="54.002" height="0.969" transform="translate(0 49.845) rotate(-67.371)"/></g><g transform="translate(0.047 14.315)"><rect class="d" width="0.968" height="54.002" transform="translate(0 0.894) rotate(-67.363)"/></g><g transform="translate(0 14.434)"><rect class="d" width="54.002" height="0.969" transform="translate(0 20.546) rotate(-22.362)"/></g><g transform="translate(14.434)"><rect class="d" width="0.968" height="54.002" transform="matrix(0.925, -0.38, 0.38, 0.925, 0, 0.368)"/></g></g><g transform="translate(0 32.973)"><g transform="translate(1.695 1.695)"><path class="k" d="M238.349,334.1a28.329,28.329,0,1,0,28.329,28.329A28.362,28.362,0,0,0,238.349,334.1Zm0,53.269a24.94,24.94,0,1,1,24.94-24.939A24.968,24.968,0,0,1,238.349,387.372Z" transform="translate(-210.02 -334.103)"/></g><path class="m" d="M237.521,331.579A30.024,30.024,0,1,0,267.546,361.6,30.058,30.058,0,0,0,237.521,331.579Zm0,56.659A26.634,26.634,0,1,1,264.156,361.6,26.664,26.664,0,0,1,237.521,388.238Z" transform="translate(-207.497 -331.579)"/></g><circle class="n" cx="2.3" cy="2.3" r="2.3" transform="translate(27.724 60.697)"/></g><path class="f" d="M349.848,397.911c-7.3-.12-10.753-2.34-10.753-2.34l-5.744,1.786s.113,1.869.367,3.741c.281,2.071.5,4.618,2.266,4.054l17.4-4.525S354.57,397.989,349.848,397.911Z" transform="translate(-248.818 -278.904)"/><path class="o" d="M336.433,396.8l-3.081.958s.113,1.869.367,3.741c.281,2.071.5,4.618,2.266,4.054l9.6-2.5a22.248,22.248,0,0,1-6.99-2.864A4.462,4.462,0,0,1,336.433,396.8Z" transform="translate(-248.818 -279.309)"/><g transform="translate(60.826 114.675)"><g transform="translate(9.069 1.7)"><rect class="d" width="1.099" height="15.863"/></g><g transform="translate(1.697 9.081)"><rect class="d" width="15.843" height="1.101"/></g><g transform="translate(3.629 3.633)"><path class="d" d="M303.457,409.233l.777.778,11.2-11.217-.777-.778Z" transform="translate(-303.457 -398.015)"/></g><g transform="translate(3.629 3.633)"><path class="d" d="M303.457,398.794l11.2,11.217.777-.778-11.2-11.217Z" transform="translate(-303.457 -398.015)"/></g><path class="m" d="M307.673,392.606a9.636,9.636,0,0,0-9.618,9.631,9.621,9.621,0,0,0,19.238,0A9.637,9.637,0,0,0,307.673,392.606Zm0,16.662a7.031,7.031,0,1,1,7.022-7.031A7.034,7.034,0,0,1,307.673,409.268Z" transform="translate(-298.055 -392.606)"/><g transform="translate(7.725 7.735)"><path class="n" d="M311.449,404.122a1.9,1.9,0,1,0,1.893,1.9A1.895,1.895,0,0,0,311.449,404.122Z" transform="translate(-309.556 -404.122)"/></g></g><path class="g" d="M265.65,292.461l-13.707-1.787s-2.384-10.132-3.575-13.31-2.98-14.3-11.919-10.528a6.315,6.315,0,0,0-2.186,6.754,197.689,197.689,0,0,0,6.556,18.673c1.192,2.384,3.377,8.542,6.556,8.343s18.871-1.986,19.666-1.986S268.034,293.454,265.65,292.461Z" transform="translate(-216.201 -236.384)"/><path class="j" d="M239.092,285.583a60.8,60.8,0,0,1-4.341-14.2,5.341,5.341,0,0,1-.083-.929,6.221,6.221,0,0,0-.405,4.579,197.757,197.757,0,0,0,6.556,18.673c1.192,2.384,3.377,8.542,6.556,8.343,1.378-.086,5.109-.471,8.958-.879a15.651,15.651,0,0,1-10.222-4.08C243,294.159,240.816,289.413,239.092,285.583Z" transform="translate(-216.202 -237.825)"/><path class="a" d="M238.616,238.8c-1.044.652-.913,5.744.914,5.222s1.305-4.047,1.305-4.047S239.661,238.149,238.616,238.8Z" transform="translate(-217.499 -227.387)"/><path class="i" d="M228.511,229.67c-.783-.447-3.332-1.4-4.645.472-1.39,1.986,1.589,14.7,5.165,10.727a5.5,5.5,0,0,0,1.084-1.827A14.291,14.291,0,0,1,228.511,229.67Z" transform="translate(-212.757 -224.224)"/><path class="j" d="M223.832,236.9c.67,4.134,2.845,9.285,5.3,6.554l.014-.017A13.377,13.377,0,0,1,223.832,236.9Z" transform="translate(-212.86 -226.809)"/></g><path class="p" d="M184.914,327.272c-.041-.142-.088-.265-.132-.4a5.376,5.376,0,0,0-.238-1.166l-11.892-36.424a9.313,9.313,0,0,0-.567-1.339,8.606,8.606,0,0,0-11.626-3.6c-4.205,2.215-5.351,9.1-3.135,13.309l17.386,32.217a91.117,91.117,0,0,0,1.8,11.3c2.908,10.789,8.319,25.814,8.319,25.814.422,1.219,7.3-1.47,7.032-2.916Z" transform="translate(-132.095 -208.48)"/><path class="o" d="M164.674,294.644c-.911-4.782,4.82-7.339,7.658-5.023l-.11-.338a9.313,9.313,0,0,0-.567-1.339,8.606,8.606,0,0,0-11.626-3.6c-4.205,2.215-6.47,7.536-4.255,11.742l18.506,33.785a91.117,91.117,0,0,0,1.8,11.3c2.908,10.789,8.319,25.814,8.319,25.814.16.461,1.247.362,2.52-.018-2.513-10.3-3.593-20.917-6.149-31.31C177.227,321.229,167.461,309.274,164.674,294.644Z" transform="translate(-131.666 -208.48)"/><path class="d" d="M136.522,410.9c-3.188-.605-4.234-1.413-5.178-2.8a5.67,5.67,0,0,1-.956-4.544l-5.078-2.222a24.906,24.906,0,0,0-5.007,7.8,22.969,22.969,0,0,0,10.3,5.132c2.084.367,3.154.455,7.849-.432C138.456,413.835,139.588,411.484,136.522,410.9Z" transform="translate(-120.304 -247.219)"/><path class="b" d="M125.773,405.44a5.958,5.958,0,0,1,2.356-2.869l-2.819-1.233a24.9,24.9,0,0,0-5.007,7.8,23.379,23.379,0,0,0,9.481,4.959C126.627,412.234,124.159,409.327,125.773,405.44Z" transform="translate(-120.304 -247.219)"/><path class="p" d="M147.075,283.84a8.611,8.611,0,0,0-8.547,8.673l.255,34.71c-.177.31-4.044,6.7-4.561,8.1-2.72,7.384-8.833,28.044-8.833,28.044-.42,1.261,6.01,4.088,6.689,2.744l16.4-33.679a5.866,5.866,0,0,0,.31-.746,5.425,5.425,0,0,0,.165-.625,5.341,5.341,0,0,0,.485-1.474l6.188-35.666a9.249,9.249,0,0,0,.126-1.535A8.611,8.611,0,0,0,147.075,283.84Z" transform="translate(-121.967 -208.642)"/><path class="o" d="M147.075,283.84a8.611,8.611,0,0,0-8.547,8.673l.255,34.71c-.177.31-4.044,6.7-4.561,8.1-2.72,7.384-8.833,28.044-8.833,28.044-.159.477.664,1.179,1.784,1.793a47.687,47.687,0,0,1,3.76-11.847,67.474,67.474,0,0,1,5.258-8.882c1.964-3.469,4.254-6.722,5.875-10.393,1.06-2.4,1.089-4.964,1.255-7.542.226-3.489.463-6.977.777-10.459a147.83,147.83,0,0,1,3.041-20.148,4.413,4.413,0,0,1,1.234-2.259,25.447,25.447,0,0,1,3.557-5.637,4.478,4.478,0,0,1,1.621-1.269A8.566,8.566,0,0,0,147.075,283.84Z" transform="translate(-121.967 -208.642)"/><path class="c" d="M175.133,230.344l.011,0-2.4-5.891c-.559-4.383-1.366-7.906-4.379-9.182-4.3-1.821-11.885-1.522-14.467-.453-8.785,3.639-8.2,10.062-7.275,15.556,2.356,13.946,1.193,21.768-.06,27.771-1.019,4.88-1.726,9.77-1.726,9.77s7.776,4.663,24.594-.871l3.43-31.49a4.789,4.789,0,0,0,2.357-5.059S175.184,230.434,175.133,230.344Z" transform="translate(-128.358 -185.699)"/><path class="q" d="M146.623,232.238c2.356,13.946,1.192,21.768-.06,27.771-1.018,4.88-1.726,9.77-1.726,9.77s3.488,2.084,10.831,1.807c.191-5.152.753-10.317,1.438-15.48.075-.562.152-1.124.23-1.687a62.965,62.965,0,0,1,1.812-18.379q.011-.454.021-.907a40.824,40.824,0,0,1-10-15.494C145.408,223.269,145.911,228.026,146.623,232.238Z" transform="translate(-128.358 -187.564)"/><g transform="translate(13.805)"><path class="r" d="M164.31,175.994c-2.983-.37-4.545-1.242-7.071,1.083a15.046,15.046,0,0,0-2.285,2.141c-1.079,1.5-3.821-.625-4.735,5.324-1.443,9.4,3.264,11.375,7.936,11.6,10.75.521,12.672-7.135,12.23-11.7S169.341,176.617,164.31,175.994Z" transform="translate(-143.844 -173.08)"/><path class="r" d="M144.584,175.853c-2.4,1.545-4.248,8.22-3.594,11.714.9,4.806,6.668,9.644,10.6,9.95s14.594-8.53,14.594-8.53a10.564,10.564,0,0,0,1.441-6.874C167.152,177.946,160.493,165.612,144.584,175.853Z" transform="translate(-140.857 -171.885)"/><path class="a" d="M159.2,190.489c-2.425.269-2.64,3.663-1.851,5.971.713,2.086,1.812,4.406,3.393,5.563,3.268,2.391,8.695,1.442,10.125-1.143,2.224-4.018-2.518-13.307-2.518-13.307S165.916,189.743,159.2,190.489Z" transform="translate(-146.136 -177.036)"/><path class="a" d="M167.181,204.655c.136-3.174-3.886-2.506-4.682-.156-.669,1.973-2.317,6.866-1.034,8.73,1.912,2.779,7.241.747,6.878-2.328C168.09,208.768,167.139,206.916,167.181,204.655Z" transform="translate(-147.467 -181.937)"/><path class="s" d="M168.265,209.834c-.252.03-.506.051-.752.075a5.093,5.093,0,0,1-1.857-.043,7.305,7.305,0,0,1-1.141-.2l-.888-.36c.829,1.193,1.881,1.852,4.218,2.1.261.028.521.041.783.059-.122-.432-.238-.914-.326-1.413C168.287,209.98,168.277,209.907,168.265,209.834Z" transform="translate(-148.333 -184.172)"/></g><path class="a" d="M189.449,261.248l-1.656-.845-.576-.275c-.377-.179-.928-.449-1.636-.769-1.411-.656-3.439-1.56-5.879-2.605-1.216-.536-2.544-1.079-3.939-1.67l-4.383-1.827c-1.5-.643-3.078-1.279-4.567-1.946-.339-.152-.669-.307-.971-.457l.126.2.157.249.078.124c.215.271-.165-.2-.255-.319l-.091-.1c-.069-.072-.142-.141-.218-.206s-.133-.108-.2-.158c-.031-.017-.067-.036-.092-.052a.575.575,0,0,1-.1-.069c.014,0-.008-.009.034.013l.07.042.058.039c.011.008.021.017.033.026.1.053.207.111.322.171l.083.04-.189-.3-.6-1.023c-.791-1.382-1.489-2.845-2.145-4.314s-1.251-2.957-1.776-4.424-1.025-2.9-1.447-4.281-.821-2.691-1.148-3.915-.636-2.346-.877-3.348-.449-1.872-.622-2.59l-.376-1.65-.118-.547-.035-.165a4.118,4.118,0,0,0-8.117,1.321s.026.247.076.71c.053.445.121,1.087.244,1.892s.271,1.779.494,2.884.469,2.354.811,3.7.715,2.807,1.194,4.333,1.017,3.131,1.651,4.774,1.373,3.318,2.2,5a49.269,49.269,0,0,0,2.846,4.994l.821,1.217.432.6.215.3.108.15c-.248-.313.353.447.3.373l.014.015.03.029.175.18c.091.089.186.175.283.257s.2.161.3.235l.126.086.209.132c.134.082.21.12.318.18.181.095.345.175.483.237.291.135.534.232.78.332.482.191.928.352,1.37.507,1.753.613,3.409,1.128,5.039,1.585s3.18.9,4.672,1.273,2.892.737,4.2,1.028c2.607.609,4.793,1.059,6.332,1.346.767.151,1.377.249,1.791.32s3.384.424,3.384.424c.908.154-.9-.618-.483-1.49C189.3,262.174,190.5,261.751,189.449,261.248Z" transform="translate(-129.517 -188.032)"/><path class="t" d="M174.527,265.771l-.013-.015.017.021.01.011c.048.055.005.006.013.014Z" transform="translate(-138.101 -202.703)"/><path class="t" d="M174.468,265.758l-.157-.249-.126-.2-.083-.04c-.116-.06-.227-.118-.322-.171.069.05.137.1.2.158s.149.134.218.206l.091.1-.017-.022.013.015.027.032c-.007-.008.035.041-.013-.014l-.01-.011c.09.114.469.59.255.319Z" transform="translate(-137.861 -202.49)"/><path class="b" d="M157.152,242.385a4.421,4.421,0,0,1,3.053-4.241c-.181-.548-.362-1.1-.525-1.629-.42-1.38-.821-2.691-1.147-3.915s-.637-2.346-.877-3.348-.449-1.872-.622-2.59l-.376-1.65-.118-.547-.035-.165a4.118,4.118,0,0,0-8.117,1.321s.027.247.076.71c.053.445.121,1.087.244,1.892s.271,1.779.494,2.884.469,2.354.811,3.7.715,2.807,1.194,4.334,1.017,3.131,1.651,4.774,1.373,3.319,2.2,5a49.277,49.277,0,0,0,2.847,4.994l.82,1.217.432.6.215.3.108.15c-.248-.313.353.447.3.373l.014.015.03.029.175.18c.091.089.186.175.283.257s.2.161.3.235l.126.086.209.132c.134.082.21.12.319.18.18.095.345.175.482.238.291.134.533.232.78.332.482.191.928.352,1.37.507,1.753.613,3.409,1.128,5.039,1.585s3.18.9,4.672,1.273c.834.212,1.634.413,2.412.6-1.433-.7-2.85-1.446-4.247-2.241C164.81,256.018,156.911,251.454,157.152,242.385Z" transform="translate(-129.517 -188.032)"/><path class="c" d="M153.568,219.964c-6.061-2.172-5.882,6.97-5.832,7.433.314,2.634,2.818,12.464,2.744,12.235a17.1,17.1,0,0,0,5.424-.9,12.9,12.9,0,0,0,2.346-.772c1.724-.925,2.213-.963,2.179-1.072C158.256,229.8,157.577,221.4,153.568,219.964Z" transform="translate(-129.306 -187.561)"/><path class="b" d="M149.665,221.027c.012-.06.029-.114.042-.173-2.105,1.928-2.006,6.616-1.971,6.944.314,2.634,2.818,12.464,2.744,12.235a12.9,12.9,0,0,0,2.99-.283C149.777,234.68,148.7,226.052,149.665,221.027Z" transform="translate(-129.306 -187.963)"/><path class="a" d="M206.481,279.881l-.686,2.744c.086,2.144,3.644,2.84,5.416,2.72,2.075-.141,1.067,1.5,1.067,1.5a.737.737,0,0,0,.378.8c1.679-.168,4.3-1.009,5.331-2.267s-1.343-3.694-1.343-3.694Z" transform="translate(-148.372 -207.343)"/></g></svg>